<mxfile host="Electron" modified="2023-12-15T09:11:08.348Z" agent="Mozilla/5.0 (Windows NT 10.0; Win64; x64) AppleWebKit/537.36 (KHTML, like Gecko) draw.io/22.1.2 Chrome/114.0.5735.289 Electron/25.9.4 Safari/537.36" etag="VfXyDQvjfOPhkSEh6qU8" version="22.1.2" type="device">
  <diagram name="Page-1" id="4TuvBg7SgtVeHI91bdSs">
    <mxGraphModel dx="722" dy="465" grid="1" gridSize="10" guides="1" tooltips="1" connect="1" arrows="1" fold="1" page="1" pageScale="1" pageWidth="850" pageHeight="1100" math="0" shadow="0">
      <root>
        <mxCell id="0" />
        <mxCell id="1" parent="0" />
        <mxCell id="8SS_QkGXYisFhr5MhX2D-21" value="" style="edgeStyle=orthogonalEdgeStyle;rounded=0;orthogonalLoop=1;jettySize=auto;html=1;" edge="1" parent="1" source="8SS_QkGXYisFhr5MhX2D-2" target="8SS_QkGXYisFhr5MhX2D-3">
          <mxGeometry relative="1" as="geometry" />
        </mxCell>
        <mxCell id="8SS_QkGXYisFhr5MhX2D-2" value="Get prompt from user" style="rounded=1;whiteSpace=wrap;html=1;fillColor=none;" vertex="1" parent="1">
          <mxGeometry x="422.93" y="260" width="120" height="60" as="geometry" />
        </mxCell>
        <mxCell id="8SS_QkGXYisFhr5MhX2D-20" value="" style="edgeStyle=orthogonalEdgeStyle;rounded=0;orthogonalLoop=1;jettySize=auto;html=1;" edge="1" parent="1" source="8SS_QkGXYisFhr5MhX2D-3" target="8SS_QkGXYisFhr5MhX2D-4">
          <mxGeometry relative="1" as="geometry" />
        </mxCell>
        <mxCell id="8SS_QkGXYisFhr5MhX2D-3" value="Add chat history and system instructions to the user prompt to create the context" style="rounded=1;whiteSpace=wrap;html=1;fillColor=none;" vertex="1" parent="1">
          <mxGeometry x="422.93" y="340" width="120" height="60" as="geometry" />
        </mxCell>
        <mxCell id="8SS_QkGXYisFhr5MhX2D-23" value="" style="edgeStyle=orthogonalEdgeStyle;rounded=0;orthogonalLoop=1;jettySize=auto;html=1;" edge="1" parent="1" source="8SS_QkGXYisFhr5MhX2D-4" target="8SS_QkGXYisFhr5MhX2D-22">
          <mxGeometry relative="1" as="geometry" />
        </mxCell>
        <mxCell id="8SS_QkGXYisFhr5MhX2D-4" value="Get search query from OpenAI using the context and function schema&amp;nbsp;" style="rounded=1;whiteSpace=wrap;html=1;fillColor=none;" vertex="1" parent="1">
          <mxGeometry x="422.93" y="421" width="120" height="60" as="geometry" />
        </mxCell>
        <mxCell id="8SS_QkGXYisFhr5MhX2D-28" style="edgeStyle=orthogonalEdgeStyle;rounded=0;orthogonalLoop=1;jettySize=auto;html=1;" edge="1" parent="1" source="8SS_QkGXYisFhr5MhX2D-5" target="8SS_QkGXYisFhr5MhX2D-27">
          <mxGeometry relative="1" as="geometry" />
        </mxCell>
        <mxCell id="8SS_QkGXYisFhr5MhX2D-5" value="Create embeddings for the search query" style="rounded=1;whiteSpace=wrap;html=1;fillColor=none;" vertex="1" parent="1">
          <mxGeometry x="422.93" y="584" width="120" height="60" as="geometry" />
        </mxCell>
        <mxCell id="8SS_QkGXYisFhr5MhX2D-31" style="edgeStyle=orthogonalEdgeStyle;rounded=0;orthogonalLoop=1;jettySize=auto;html=1;dashed=1;" edge="1" parent="1" source="8SS_QkGXYisFhr5MhX2D-6" target="8SS_QkGXYisFhr5MhX2D-15">
          <mxGeometry relative="1" as="geometry" />
        </mxCell>
        <mxCell id="8SS_QkGXYisFhr5MhX2D-32" style="edgeStyle=orthogonalEdgeStyle;rounded=0;orthogonalLoop=1;jettySize=auto;html=1;" edge="1" parent="1" source="8SS_QkGXYisFhr5MhX2D-6" target="8SS_QkGXYisFhr5MhX2D-7">
          <mxGeometry relative="1" as="geometry" />
        </mxCell>
        <mxCell id="8SS_QkGXYisFhr5MhX2D-6" value="Query AI Search using both text and embedding search query" style="rounded=1;whiteSpace=wrap;html=1;fillColor=none;" vertex="1" parent="1">
          <mxGeometry x="256" y="665" width="120" height="60" as="geometry" />
        </mxCell>
        <mxCell id="8SS_QkGXYisFhr5MhX2D-37" value="Get results" style="edgeStyle=orthogonalEdgeStyle;rounded=0;orthogonalLoop=1;jettySize=auto;html=1;" edge="1" parent="1" source="8SS_QkGXYisFhr5MhX2D-7" target="8SS_QkGXYisFhr5MhX2D-36">
          <mxGeometry relative="1" as="geometry" />
        </mxCell>
        <mxCell id="8SS_QkGXYisFhr5MhX2D-7" value="Add search results to the context modifying the system instructions" style="rounded=1;whiteSpace=wrap;html=1;fillColor=none;" vertex="1" parent="1">
          <mxGeometry x="256" y="748" width="120" height="60" as="geometry" />
        </mxCell>
        <mxCell id="8SS_QkGXYisFhr5MhX2D-10" style="edgeStyle=orthogonalEdgeStyle;rounded=0;orthogonalLoop=1;jettySize=auto;html=1;exitX=0.5;exitY=1;exitDx=0;exitDy=0;" edge="1" parent="1" source="8SS_QkGXYisFhr5MhX2D-8" target="8SS_QkGXYisFhr5MhX2D-9">
          <mxGeometry relative="1" as="geometry" />
        </mxCell>
        <mxCell id="8SS_QkGXYisFhr5MhX2D-8" value="Extract text from PDFs" style="rounded=1;whiteSpace=wrap;html=1;fillColor=none;" vertex="1" parent="1">
          <mxGeometry x="90" y="340" width="120" height="60" as="geometry" />
        </mxCell>
        <mxCell id="8SS_QkGXYisFhr5MhX2D-12" value="" style="edgeStyle=orthogonalEdgeStyle;rounded=0;orthogonalLoop=1;jettySize=auto;html=1;" edge="1" parent="1" source="8SS_QkGXYisFhr5MhX2D-9" target="8SS_QkGXYisFhr5MhX2D-11">
          <mxGeometry relative="1" as="geometry" />
        </mxCell>
        <mxCell id="8SS_QkGXYisFhr5MhX2D-9" value="Split text into chunks" style="rounded=1;whiteSpace=wrap;html=1;fillColor=none;" vertex="1" parent="1">
          <mxGeometry x="90" y="421" width="120" height="60" as="geometry" />
        </mxCell>
        <mxCell id="8SS_QkGXYisFhr5MhX2D-14" value="" style="edgeStyle=orthogonalEdgeStyle;rounded=0;orthogonalLoop=1;jettySize=auto;html=1;" edge="1" parent="1" source="8SS_QkGXYisFhr5MhX2D-11" target="8SS_QkGXYisFhr5MhX2D-13">
          <mxGeometry relative="1" as="geometry" />
        </mxCell>
        <mxCell id="8SS_QkGXYisFhr5MhX2D-11" value="Create vectors (embeddings) of the chunks" style="whiteSpace=wrap;html=1;fillColor=none;rounded=1;" vertex="1" parent="1">
          <mxGeometry x="90" y="503" width="120" height="60" as="geometry" />
        </mxCell>
        <mxCell id="8SS_QkGXYisFhr5MhX2D-16" style="edgeStyle=orthogonalEdgeStyle;rounded=0;orthogonalLoop=1;jettySize=auto;html=1;" edge="1" parent="1" source="8SS_QkGXYisFhr5MhX2D-13" target="8SS_QkGXYisFhr5MhX2D-15">
          <mxGeometry relative="1" as="geometry" />
        </mxCell>
        <mxCell id="8SS_QkGXYisFhr5MhX2D-13" value="Add these chunks and their vectors to the AI Search index" style="whiteSpace=wrap;html=1;fillColor=none;rounded=1;" vertex="1" parent="1">
          <mxGeometry x="90" y="584" width="120" height="60" as="geometry" />
        </mxCell>
        <mxCell id="8SS_QkGXYisFhr5MhX2D-15" value="Azure AI Search" style="shape=image;verticalLabelPosition=bottom;labelBackgroundColor=default;verticalAlign=top;aspect=fixed;imageAspect=0;image=data:image/png,iVBORw0KGgoAAAANSUhEUgAAAlgAAAE7CAYAAAAB7v+1AAAAAXNSR0IArs4c6QAAAARnQU1BAACxjwv8YQUAAAAJcEhZcwAADsMAAA7DAcdvqGQAACCxSURBVHhe7d15dFzlffDx/EXP6R9uaojZgpKG4JBNNIU4hRDRBnDCYpmQIMCxxXl73rg9fVs3bVMnIViyJMsLtiwvkmUZSzIQEzYBXiRvCLNYJrwgVsuLtpEljaSRNDOWxdjtX7fPM3pEhPwzHmm2u3w/53xP2qbg8dyZ5/7m3jt3PgcAAAAAAAAAAAAAAAAAAAAAAAAAAAAAAAAAAAAAAAAAAAAAAAAAAAAAAAAAAAAAAAAAAAAAAAAAAAAAAAAAAAAAAAAAAAAAAAAAAAAAAAAAAAAAAAAAAAAAAAAAAAAAAAAAAAAAAAAAAAAAAAAAAAAAAAAAAAAAAAAAAAAAAAAAAAAAAAAAAAAAAAAAAAAAAAAAAAAAAAAAAAAAAAAAAAAAAAAAAABPeKhmcOZDNeGs+TXBnAU14bzcbeHi3G2hBt2CbeGI+t+tyaT+Gf/YPz9auFj/e/Wf8VDN0CzzxwIAALiDHnIW1AQXqsGnxAw/4pCU7BZsCwXNAFY1vyacq4c88xABAADsK7fad9H8muBsPUwt2BZulgYdOzV65Cu8fUFNeJEaBDPNXwMAACC99Cm4BTWhxek8OpWoRk9Phmr1ES41dE0zf0UAAIDk06fX1EBSvGBbqH3ikOKytuvrxPSROfNXBwAASJyHagIz9Kk0J5z6S3SjR7YYtgAAQIKMXlMVrhs/cHg5fd3W6DcUAzPMUwQAAHBhoxerh3O9eLQq1sz1WlUP1YQzzNMGAABwLn1htz46o4/SSEMFna9Qrb4dhXkaAQAARo9YjQ5W+l5R0gBBsaSevyYGLQAAPM4MVvrCdY5YJbToES1OHQIA4DWj11i5/jYLaWv0Gq3oT/ZwPy0AANxO38NK7fwbJw4ElJz00UH9U0Hm6QcAAG6j77hujqyIwwAlr9Hrs/jhaQAAXGNeTThTH7VS6SMqlKbmq+FWD7lmswAAAKdSO/ViaWdP6SzUwI1KAQBwoOhP23DUyrbN3xYK6rvkm80FAADsTu+49Q5c2rGTvZq/LVzO7xsCAGBznBJ0YtEblHLfLAAA7Cb6MzecEnRsajD26y8jmM0JAADSTd/bav62ULu04ybnxHVZAADYxM9rhmZxvZXL4sakAACkz/yaYE703krSTpocnRqaS8xmBgAAqWJ+pFncOZNbClWZzQ0AAJLt5zXhvPlqB0zujyELAIAUUMPVImlHTO6NIQsAgCSaXxPOVVnkwaq5JgsAgISbp4arn6sdLXm6PPNyAAAA8XqwJpjz85qQ2sESBRmyAACIl77P1bzqUETe2ZIXm8d9sgAAmLr7a8IZarjyz4vuVIlGezA6cA/NMi8TAAAQq9xq30UPVgebpB0s0bzqYPt9NYEZ5uUCAABi8UB1qPbB6ujRCqLz1WBeLgAA4EIeqA4WCztTIilu3wAAwIXcXxPOEnaiROdv62C2efkAAICJ9DU1D1SF/A+onSZRrN1fFYo8WDM407yMAADAeGpnWTtx50kUU1WhRvMyAgAAYx7YOrjwgeqg2lkSTbGqoUXm5QQAAPTpnZyqYOR+tZMkmmr6NcStGwAAMO6vCjapLKL4G6ozLysAALwrp2poUY7aMRIlrK0DOeblBQCA9+jTOTlbg35xJ0k01dRrilOFAADPyqkKlYs7SKL4qzIvMwAAvOO+LYHM+9SOkChpqdeYebkBAOANP6sKNoo7RaIEpV5jteblBgCA++VsHcy+b6vaCRIlO45iAQC84qdbh5p+tnXIotjbuCdk7Xsn/ElvHTtlHe8cra172Dp9+rTVGxj+5P/W3HHqU///FfuC1j89Kf+7Xd1jQxzFAgC4371bB7PFHSF90q+fGbIePxi0Xv8w/MnwlKhO9p6KDmfPHQpZxS8FxT/fbenXnHn5AQDgTvduHWr6qdrp0adbsysYHXz8gcQOVBcqFB623m8NRwe6h7YFxcfm9PRrzrz8AABwH30kQdoBerV/fHIoeiRJH1WShp9UNxQ6bR1uPhUd9qTH6+Q4igUAcC2OXo02drRKHz2SBh07pIe+l94MWb/8gzuGLfXaazAvQwAA3OPeysHsex9TOzoPt+zFoNWa4Guqkp0eAvVF8rk1QfHv5KgqB2ealyMAAO5w75ahOnGn54F++VQweupNGmCcUv/gsPX4K04fsoIl5uUIAIDzza0IZ8g7PHenj/rsfisUvbZJGlqcmM8/bG2oD4l/X7v3ky1D/txq30XmZQkAgLOpHVvxT/QOzkNVvRxK+TcCU5n+5uEvnpD/7rauciDHvCwBAHAufcTgni1DfnFn58L0USunnw6MNX3acPWuoPg82LYtXOwOAHCBuZX92fc8Nmh5oX97ashq7fbGcDWWvgj+2UNB8fmwa1zsDgBwtLkVfRn3bBlouGeL2rG5vPX1QVddazXZmk6cshbUDInPjd3Sp6zNSxQAAPvSpwHnPjaYNXfzwKKfVA6VR4eqysGItHNzYy8eDolDh9fSF8DnPe+IIavdvHQBALCPm/VAVdmfPVcNU3O3DDTPVTstr6aP3EjDhlfTR/GKXhgSnytbVdGXYV7OAACkz5wt/bOyKwOL51YONoo7LA/21tGwOGR4PT1kLXne5kPW5oFF5qUNAEBqzd0SyBw9SjXoP2cH5fHSMVwd6ThlvfDmKavi5WHr0b0j0Zbsjli/2XnmU/3rs6ej/92aPcPWM42noo/1eGdqj7TpW1T819O2HrLqzMscAIDku6MsMGOO+nSfvWWgOVvtiOjc9r6Tmmuu9O8B7n/3lFWyd9j67c6IVbTvf6bcb3edsRY9N2xtezV1w5Yesn6lhizpOUx7lYMRfarbvOwBAEiOuyv7s9VOp06ldz50nva+ndzhSt/24JUPhq2lO0esh9VQJA1L8fbI7rPWkh0j1rOHwtEhTnociSo6ZP1BDVnCc5nu5mwOzDYvfwAAEmtORSB3zuaB5jl6h0Of2a4/BsUhIhH1D5yynjs8bOXtTs5Qdb7y6s5aK3YPR08/So8rEekha171kPicprO7Kwf5bUIAQOLoUyN6sLq7cqB9TuWA2tnQhVq1Y0gcHuJNXxD+5Gvh6Ck8aQBKVQ/viliVL4ejg570OONNXwcmPa/pTL/+zVsCAID4zNncv0jtXPwTdzZ0/uZVDybldwXfax22HtnxsTjwpKuHd35svfx+coasbQ36KJb8HKer7JrwNPPWAABg8u6qGMy6qyLQfPdm9cmdJlXjkcR+Y1BfZ1X12ohVuOe/xSHHDi2vG7F8PYkdKvXRuv98alB8jtOVfl+YtwgAALHT3wq8e/PgdmnnQheubE9iTw22dp22CnbH943AVPXrHRHrUIJ/uPpY5ynxeU5Xd23u535YAIDJuXtTYPFdmwNBacdCF+5ffj+Y0GuS9ClBfd8qaZixa/obh3ubEjtk6S8LSM93OrqrYqDcvF0AAPhsd1cOzryzItB8l96B0JR7ryVxpwYPHTltFdSfFYcYu7dUPe6nDiVuyNKnSAtqB8XnPA01mrcNAADnp095qE/lEWFHQpPosQOJuyXDzrdP2/p6q1iraJD/flNJD6/S857q7twcCJq3DgAA59LXWt1RMVB3Z4XaaVDcdSToAu/6ptPisOLUNu4fjh6Bkv6uk63g+UHxuU91+oiveRsBAPAnd5YFZqvhyi/tPGjyPbY/MUev3mkZjp5ekwYVp6aPxD31emJOneqjWNLzn+ruKO/PNm8lAABG3VkRKFGpHQUlqo6e+K836u5333A1lr77+7sJuj6t4Hk95MjbIWVt6lts3k4AAK/Td2P/cUWg9g61g6DEtWV/Ym7LsHyvs74tONmW7D5j+QPxD6L6KJa0HVLbQLF5WwEAvCy7NDxN7Rgaz91RULwl4uhV1Wv2ujt7slq552Px7z/Zlj4/IG6LlLVpoMq8tQAAXjV7g3/mHeWB9js26R0DJbKNdYPiADCZDjefEocRt/b8m/Ff8B49iiVsj1T14039debtBQDwIrUjmKUK/ji6U6BE98fm+K8rKqx396nBif1uVyQhR/3++YkBcZukqAbzFgMAeM3sssDsH5cHIsLOgRJQzmMD1lAovqMxB9531y0ZYm3dvviPYj392pC4XVJSeaDdvM0AAF6ih6sfqeHqR2pnQMkp3tOD4WF9M1F3fmvwQuXX/7fV1h3fUawj7WFxu6Smfm42CgBe86OKviyGq+TXeCS+04M73xkRhw+vVLpPfl5iTd+8NLda3japyLzdAABecHtZIHN2eX9wdnnAouTWF8ePOo8evXL+T+HEk/77t3TFdxTr9weHxG2Tim7b1D/LvO0AAG7GcJW61u6K795X+z/wxm0ZLtSWgyPi8xNrH7WHxe2TuqLvt4bbywN56n/O/lFFX4Z5OwIA3EAv7KOLfb9e9CnJNX4U3+nBdQ1nxIHDaz2860xcRwL1acL7tkQHHdt0e3mfX/1n1e0b+3KySsPTzFsUAOA0ehG/rby/+fbo4k6pKJ7bDATDI54/PTi+/e/GN6wuf3FA3Ea2qayv8bayvsUc3QIAh7mtLFArLuyUlH62JRA9ciLt7GOp8ai3L26f2Lq98V2H9fRrg+J2smkNauDK1T9bZd6+AAA7urW8v/g2tXBT6sp7LiDu6GOt4hWuvxrfb3fG9/M5B98PidvJ5gVvLQuU619ZMG9lAIBd/HBjX85tZWqxppRWdWDq97/S3x4s8ui9r86XPl0azz2x9IXu0nZyToFa/QUV87YGAKSTXpBv3dgfuVUt0JTa9BETaUcfSye6OT0o9eJbUz/lqi+Sl7aT82LQAoC00tdvqAW5+dwFmlLRH5unPmA1fMjpQamV9fLzFWvzt8rbypkxaAFAWujrruSFmVLRMd/UT2c9/SYDltSvXozvOqzlLwyI28rRqfc5t3kAgBS5ZX3/rB+qxZfS18neqQ9YXOAu96uXPo7rm5lPvjIobivHt7HPf2tZ72zz9gcAJIM+NfjDsr5mlVp8KV3Fc2PM1fu5wajUb3dGLH8g3gFL3l5u6O839tVllQVmmKUAAJBIP9zYX6wWWr3YUhqTdvCxtnwf3yCUyq8/G/eAJW0rlxW8ZT1HswAgoW4p68kUFlxKQ9IOPtaK9nIH9/PV3DH1I4N/eNUTA9ZoZX0l3KgUABLk7zb0Nf2dWlwp/Uk7+FjSP5EjDRY02nstUx+w6t8aEreVe+ttvIWblAJAfNRCmi0vspSOpB18LA0ET4uDBY12uHnqv0novQErGqcMAWCq9KkA9Wm1XVhcKU1JO/hY4xTh+Ws8woA1lW7Z0JdrlgsAQKxuWe9fdIteRMk2STv4WCvey0XuUkvrz1otXfGdIpS2lVfK2thfbJYMAMCF6K9lZ+nTAMKCSukrnm+7rTnAbRqkfrf7TFy3v9AXuUvbyktlbeyt4uJ3AIhB1obeEpVF9uqYb+qnsipf5UajUr/ZEd+d3Cv2DIjbynv56xiyAOAz6KNXP1jfG5EXUUpnbx+b+m8R8lM5ckt3j4jPV6w98ky/uK082freWrOMAAAm+sE6/2Jx8aS0d/C9oLiTj6X9HzBgSa3bJz9fsfbglj5xW3m29b1VZikBAIzRh/hvXu/3/0AtlGS/nn9jUNzJx1JLD/fCknr8talffzUUHBa3k9e7mSELAD7t5nU9OdKCSfZoWW2/uKOPpfAwt2qQevPo1K9r6/SHxe1Easja2Mu3CwFgjFoYmyYulGSfsiviu1VD+SsRccjwar/ZEYkehZKeq1j6qI0B67O6eYM/2ywtAOBd31/fPevm9X6L7F1Hz9RPaR38kDu6j+/RuqkfvdK91DggbiMa7fvr/JGbSnsyzRIDAN70/fX+7dIiSfYqnm8S8pM5n+7VD6b+XOp+93SfuI1ofD3tWaW+aWaZAQBv0Re336Q+baohyyJ793jDgLizj7XSlzlNqHtk95m4Tg/qf1baPnRuN633N5ilBgC85cZ1PTnSwkj26/893ivu8GON2zWM9mj91IcrnT6SKG0fOk/ruheb5QYAvOP763tqxUWRbFk812Hp04TLPP5twoI9Z60/Ho3v9KA+kihtG5LTR8hv3OCfaZYcAHA/fX3EjfpiVL0IkiM60DT1G47qDh7x9lGspTvjO3ql++fHe8VtQ+dPrTONZtkBAPe7qbQn96Z1PeoTJjml1S9N/X5YOn1PrJX7vXkUa2n9WetYZ3zfHvQHTonbhS7cjZwqBOAVatGrm7gIkv3TN7mUdv6x9sZRbx7FWrtn6qdXx9K3Z5C2CV24G9f1cKoQgPvpbw/+rV7wRhc+clDPvRHftwl1JQfOiEOIW8urP2u1dcc3YIXCw9Y/VPWK24RiS605/Cg0AHf7Xml3lrQAkv3TO3m9s5eGgFg70umt3yfctD++C9t1b3wYFLcHTbLSLu7yDsC91ICVpz5N6k+U5MDePhbfxe66Jw5541Th0t0jcQ+kuof/0CtuC5ps3U1mGQIA91ELXcO5Cx85Jb2zl4aAyaQveF/f4O5ThUt2n7E6++Ifrj5qC4nbgabcQrMUAYC7fK+0J/K3pWqhI8f27vH4j2L1D41YxfvOisOJ09PfGjx8JP5Tg7pN9QFxG9CU89+8xHeRWY4AwB2uL+3JVAOWRc4uEUexdG09p62ive4bsn7/WmKGq46esPj8U3zNKu1eZJYkAHCHWaUnF32vtFstcuT0EnEUS3foqLsuei/bH9+tLMZXurNPfO4p7vxmSQIAd1CfHLcLix05sO2vxHfj0fHVv+eOi97X7Zf/flNJf5lAet4pMc3iG4UA3GTW2q4mNWTpQ/Tk4Nbu7EvIt+PG9167GrIcerpQ/85g9cHEHbnqGzhl/Z+tfvG5pwSl1iKzLAGA8323tDsiLnbkmJIxXI2lr8la7rAL3/UF7c8eSszp0rEef7lffO4pwZV0zzJLEwA41/dKfRnfXdttkXNbuyN5w9VYA8HT1rqXnXELh9/t/Ng6+EFih6ujHSHxuaektN0sTwDgXN8t6ZotLHDkkFIxXI2l75P1zFv2HrJK9n9sdfUn9vnQz+9/POkXn39KfDes7Y5wywYAjndDyclF0iJH9i+Vw9X4TnSP2O6GpI/silivH4n/x5ulnns9ID7/lLxuKOnKMUsUADjTDSXd5eoTo/7USA4qXcPV+N5tG0n7tVn59WetqldC1mAwOc/FK+8Oic8/JT1+BBqAs12/trtOWNzIxtlhuBrf/vdHrGUp/qZhgRqsth86bQWGkvc8fNgWEp9/Sn5qXYpklvqmmWUKAJznhrVdjSq1qJETWruj11bD1Vj6+ix9RKvmjUjShi39zcDCXaetnW8PW8HwiPg4ElVHd9j6aYXe2cvbgZLfd9eczDXLFAA4z/UlXe3Xq8WM7J9dhyupo53D1pOHRqzivfFdq6WPVG04cNra9+6ppJ0GnJi+39U/1fSI24BS19+sPclpQgDOdf0aNWCVqAWNbJ2ThquJ+QdGrHdbh61nDo9Ymw9+bK3YG7GW1X98Tmv2R6xNDSNW9aunrVc/GraOdcr/vmSmn+OCZ/3iNqAUt6YraJYpAHCe75R0Rf5GLWZk31a94NzhyknpI2R6uJK2AaWnzEd9mWapAgBnkRY1sk+/2d6TslNjXq7TH7b+sbpH3AaUzk4uMksVADjHD/J8fyYvamSHGK5Sk75L+72busVtQOntOyVchwXAga4r9X3pO9FFjOwWw1VqOvzRkDV7Q7e4DcgGcR0WACe64VHfpeKiRmmN4So1vXgoID7/ZK/UOjXDLFkA4BzqE6L+lEg2ieEq+enrrZY+4xeff7Jf163uzjLLFQA4x1+vOelXWZT+GK6Sm/4m5v63B63bN3SJzz/Zs++s9i00yxUAOMdfrz7ZLC1qlNoYrpJby8mQ9e9P9IjPPdm9rhKzXAGAc2SuOdlwnVrEKH392obDVXt32Krc0xv9T+m/d0r6eX3hjX7xeSfHVGeWKwBwDrV4bZ+wmFEKs+twdU951yePsWx3n+MGLf1zN3qwGv/3IIe2+mSzWa4AwDmuW9NVLi5qlPScMFyNzwmDlr6AveZAn/j4ybmZ5QoAnOPbq0/mZa4+aVFq++XjNh2uyrrExzs+PWjp+0fZ6fHrm4WWvOgXHy85P7NcAYBzZK7yLZQWNEpeC7d2W/7+U+KgkK5iHa4mlq5hS/95///okFWzv89aUNktPjZyT9et8GWYJQsAnEH/mKq0oFFysuNwpR+PflzS451MK2t7rdc/GIoeTUrGj1PrIXDf24PRe1hJfz65NwYsAI5z2RLfRd9WCxglv1+oIabHZsOVfjz6cUmPN970kSU9dOmLzWMdvPTtFD5sDVq73wxYz77WH/3n9elU6d9P3umbq33cbBSA86gFrGnigkaJzWvDFVEiY8AC4EjfWt1ZpbIoOf1ia5dNh6su8fES2S0GLACO9M2VvkXfelQtZJTwbD1cCY+XyI4xYAFwpG+v9M2SFjWKL4YrosTERe4AHCmz1Dftm2oRo8Rl5+FKerxEdm4mAxYAp/rmqs4maWGjycdwRZTYzDIFAM7zjdWdJdLCRpOL4Yoo8ZllCgCcR19E+g21kNHU+782HK76BsLRxyU9XiKH1G6WKQBwHn3D0W+s6oyoLJp82RtO2u6HkPXPySx+slt8vERO6esrO5vMMgUAznTtys7ar+sFjSbVHBsPV9LjJXJY280SBQDO9LUVvtyvr/KpBY1ibc6GTpsOV13i4yVyWteu9C02SxQAOJP+KrS0wJEcwxVRSso2SxQAONe1KzuarlWLGn12dh6upMdL5NSuKfbNNMsTADjX11b58qRFjv4UwxVR6jJLEwA427WP+mZIixz9qQ9bg+KQk64Yrsi9dTSbpQkAnO9rKztqv7bSZ9G57TrcLw456UoPV//1RJf4WImc3syVHVVmWQIA57tmuW+2tNh5vXkVJ61Q2D43EmW4Irc3kwvcAbjNNSs72mfqBY4+qeGdAXHQSUd60NPDlfQ4idzSVaW+aWZJAgB3UIvboomLnZe7e32nbY5e6cex+oUe8XESuacO7uAOwH30xe4zV7ZH1CKnFzrPt7muRxx2Ut3ocNUtPkYiN3XNqo4SsxwBgLt8dUXH9mv0QkfW6+8PigNPKhsbrqTHR+S2Zq5q5forAO509TJf5jUr1GJH1tH29N6aITpc1arhSnhsRO6rPaJ/gN4sRQDgPl9d0VErL4DeqrMnJA4+qYjhirzWV5dzewYALnfVo74ZX1WfJtWgZXm5dA1YY8OV9JiI3NrVK3xZZgkCAPe6ekVHibQIeql0nCJkuCJPtrzdb5YeAHA3fRTr6hXtETVoqU+W3izVF7mPDVfSYyFyecVm6QEA91OLXsmERdBTVaTwNg0MV+TlMop9M82yAwDuFz2Ktbw9cvVytQh6sLvW+aKDjzQQJbqNO/ziYyBye19Z3s7NRQF4z1eWtS38SnQR9GZNx5J/mrB6r1/8s4m80NXF3PsKgEepT5iNKrUYeq9/qEzuUazR4Ur+s4k8EEevAHiXvj7iK8vbIsLi6Il2NfaJw1G8MVyR1+PoFQDP+1Jx++K/UguiV/uwZUgckqaaHq6kP4fIQ3H0CgD0T1joBXHCAumZ7lzXYTUn4L5Y+nQjwxVRu5XB0SsAGJWx7ETml4vbIl8ubre82M2rO6zX3xsQB6dYGgwOW0u2d4n/biKPxdErABjvS8XtecJi6amKn+2e1NEsfdTq5XcC1gNlPvHfR+S19Ic1s6QAAMZ8eVl7rbRoeq1fbTtp7X0rcN7fLNTXbT15wM9gRfTpys1SAgAY76p837SMZW3tX1KLJRFRrGUUt/nV+jHDLCUAgIn0rRvUYhmRFlEiIrFlbblmCQEAnM8VxW05asjSn0qJiD6zq4rbGs3SAQC4kIyi9pKMZWoBJSI6T1ctaw1mrPBlmGUDABALtYDWTVxQiYjGuqKQe14BwKTpm5BetaytQaU+qRIR/akvFrWXmKUCADBZ+puFVxW1NUkLLBF5tKK2Rv0BzCwTAICpYMgiorG+yHVXAJA4esj6YlFb8xejCywRebErl7VGrixqnW2WBQBAIuhPrWqRbZ+46BKRN7qisC3HLAcAgES6JN+XcWVhW9OVRerTLBF5pisKWhaaZQAAkAz6dOEVhS11Vxa1qoWXiDxQnnn7AwCS7fKi1qor1OJLRO5Nv8/NWx4AkCqXF7QslhZlInJF3OsKANLl8sITOZcXtUSExZmIHJr+8GTe4gCAdPnCspZZlxe1tqv0KQUicnCXFp7INW9tAEC66YvfLy9orbq8UC3SROS4LitsiVxWeJzfFwQAO9KfftVCHbwsumATkTNq8X8hv2WWeRsDAOzokvxjGWrRbjx3ESciu3VpQUudPgJt3r4AALu7tKA171K9gBORPeNidgBwpkvzj8/Un5AvLWxRCzoR2ST/jKLWLPM2BQA41SVFx2fPKGxpFhZ6IkphMwpaqv6MU4IA4C6X5B9fNKPgRFAt8nqhJ6LU1Twjn6NWAOBa+tPzJYWtJV8oOBERdgJElMD0++ySghN5ly3xXWTeggAAN/t8/pEZFxe2FqsdQPAL0R0BESWyiwtaav8y//hM85YDAHiJPqJ1cf7xRZcUtPilnQQRTS71Xtp+cf6JTPMWAwB43SX5J3LVzqFZpXcSRDS5qvR96MzbCQCAT5ue35p1ceGJ8osLWvzCToSITPo9Mr2wtYTBCgAwKdFha6katpaqYWup2qkQkTV9acv26fn8diAAIAH0sKV2LFWqZjVwWUReSr3u66bntyzkPlYAgKTR30LUn+CnLz1RMn3p8aaLl55QOyEi96Re283R17d6nXObBQBAWugd0F/kH589Pf9Enhq4tqsdU4P6z4i04yKyW+r16h99zZ4o/sv8Y7l/zjVVAAC7m55/LEsfBfi8Gr4+Hz3FGN2RCR0Pqv/UOzuiRDb+dVYXfR2q/iL/2EL92uToFAAAAAAAAAAAAAAAAAAAAAAAAAAAAAAAAAAAAAAAAAAAAAAAAAAAAAAAAAAAAAAAAAAAAAAAAAAAAAAAAAAAAAAAAAAAAAAAAAAAAAAAAAAAAAAAAAAAAAAAAAAAAAAAAAAAAAAAAAAAAAAAAAAAAAAAAAAAAAAAAAAAAAAAAAAAAAAAAAAAAAAAAAAAAAAAAAAAAAAAAAAAAAAAAAAAAAAAAAAAAAAAAAAAAAAAAAAAAAC42Oc+97/P3TZ2VAQR0AAAAABJRU5ErkJggg==;" vertex="1" parent="1">
          <mxGeometry x="102.38" y="670" width="95.24" height="50" as="geometry" />
        </mxCell>
        <mxCell id="8SS_QkGXYisFhr5MhX2D-19" value="" style="edgeStyle=orthogonalEdgeStyle;rounded=0;orthogonalLoop=1;jettySize=auto;html=1;" edge="1" parent="1" source="8SS_QkGXYisFhr5MhX2D-17" target="8SS_QkGXYisFhr5MhX2D-4">
          <mxGeometry relative="1" as="geometry" />
        </mxCell>
        <mxCell id="8SS_QkGXYisFhr5MhX2D-17" value="Function Schema" style="dashed=0;outlineConnect=0;html=1;align=center;labelPosition=center;verticalLabelPosition=bottom;verticalAlign=top;shape=mxgraph.weblogos.json_2" vertex="1" parent="1">
          <mxGeometry x="276" y="438.4" width="80" height="25.2" as="geometry" />
        </mxCell>
        <mxCell id="8SS_QkGXYisFhr5MhX2D-25" style="edgeStyle=orthogonalEdgeStyle;rounded=0;orthogonalLoop=1;jettySize=auto;html=1;" edge="1" parent="1" source="8SS_QkGXYisFhr5MhX2D-22" target="8SS_QkGXYisFhr5MhX2D-5">
          <mxGeometry relative="1" as="geometry" />
        </mxCell>
        <mxCell id="8SS_QkGXYisFhr5MhX2D-29" style="rounded=0;orthogonalLoop=1;jettySize=auto;html=1;edgeStyle=orthogonalEdgeStyle;" edge="1" parent="1" source="8SS_QkGXYisFhr5MhX2D-22" target="8SS_QkGXYisFhr5MhX2D-6">
          <mxGeometry relative="1" as="geometry">
            <mxPoint x="359.9989655172414" y="620" as="targetPoint" />
          </mxGeometry>
        </mxCell>
        <mxCell id="8SS_QkGXYisFhr5MhX2D-22" value="Search Query (Text)" style="shape=document;whiteSpace=wrap;html=1;boundedLbl=1;fillColor=none;" vertex="1" parent="1">
          <mxGeometry x="427.93" y="498" width="110" height="70" as="geometry" />
        </mxCell>
        <mxCell id="8SS_QkGXYisFhr5MhX2D-30" style="rounded=0;orthogonalLoop=1;jettySize=auto;html=1;entryX=1;entryY=0.5;entryDx=0;entryDy=0;edgeStyle=orthogonalEdgeStyle;" edge="1" parent="1" source="8SS_QkGXYisFhr5MhX2D-27" target="8SS_QkGXYisFhr5MhX2D-6">
          <mxGeometry relative="1" as="geometry" />
        </mxCell>
        <mxCell id="8SS_QkGXYisFhr5MhX2D-27" value="Search Query (Embedding)" style="shape=document;whiteSpace=wrap;html=1;boundedLbl=1;fillColor=none;" vertex="1" parent="1">
          <mxGeometry x="427.93" y="660" width="110" height="70" as="geometry" />
        </mxCell>
        <mxCell id="8SS_QkGXYisFhr5MhX2D-36" value="OpenAI" style="shape=image;verticalLabelPosition=bottom;labelBackgroundColor=default;verticalAlign=top;imageAspect=0;image=data:image/webp,UklGRiicAABXRUJQVlA4TBycAAAv08P0EFWP4rZtHHv/uVOUXPlGhAK3bZQxHt8n9Al0hZRtDGWEkDFAMgQwzoQwwpkSJChtH3cSYJk2Sd2Bhx5qWMQD/ot2UFr3/18v99H+/7927e3e1xUYOHPO9/3+fo55i0JExIhCxELEiIWIwkJEYURERETEiMKIiIhCxIiF3BwRMeKIiBG5eUS5EQsRha8oLG9EIWJEISKicEQZFyIKywyFuTmisDAiYkRhoRAxohCxEBFRGLEQERExoowRc/MRCyOWd8QNERERI34yohBRGLFQiIgo94iFiMLCiIgRCxERhRERERGFEQsjyo2IiCiMiIiIWBixEBERMaIQUViIWDiiEHFDIaIQERExYuEjIhYiCiMKI8pdKBxRbkTEiIURCxERhREREYWFEYURZYwYURhRiIgoHBEREbEwImJ5C8t7RETEQmHEwoiFQsQN35sX2i7vRowQCCT5e06wgMGkbfz/47YbSAAA0LATvRl3s63/Z9u72bZ5y+Pl/mu5hlzrcu9nd1mX+VuuOXfLzYRE21bV5hxcSa3BWVeqfJ6IE675/812Y9vKP5JjzTk11c051fd93/d93/eN1Xn60ZQs6/3/3/G+wyeFc+69ZbT4QZXE8Y2iUihkkwpAREabF7KIU7CRUzCqDE4ThCqFiYw2r01stPhGRk5BRUopGCmF298IvNFNwWjxjVxkm180kFNQESsF384pFKoMNj0ZTLRSeG9XSsFkKQUjp+Ai5RQGMhtw+1xUGWxUKRg5BRUppWA00OXzdiVU3MhopbAUwUJrp1DIKfh2wykUMlpcyCJLggAADBHdW68ys2WPRCiSERpCwy4pJBGOolIIUSGFzJBSpA4HAgC00P3/haedijRkFC30nxZsW3FbaSO3ZHlQxy92ZAkud+KH1aCABCANyAPKgAagD5gDDoAPEAYkAtlAOVANLAbWAJuBPcAxgAGuAw8AEfAGeA98AL4AHPAP+A/0A+PAlCcCE8OLgjbVJiK2+esDD3vfqtnuNlYLWLKvY419+UYrCqnWsCyv0OVmc56AJCADKJYBhoA14AWEA2lAGVAPrAC2AAg4DVwbCrwCuoBPmwJ+BwEDwDAwagUmpUHVrb4pUUElm8rtlDV02oN4CbCy3bEeN2/AodLLIjMc5rM/IYAsgDcEbABfIA4oBihg3e6AM8At4AXQDXwH/gKDvro0MnVf/5jEgNbvPmJ3g579REA84PfiDV852mG++hsCqAJGgPM8IK8d0AwIgcvAswCgrwgY0aVJqIcXlQZUOd6Vrtdu7jzApUOOGWkv7mhAHbBYEZAMzALWXmlaVi7wJ0WXJqqekgl8zpoGoNnA7EtdDbAMi3abcwBAXjrgWh2YXgs49O6xm4qySoXQGrUpoP3dNzd7Q9Xvlp5nM7t8wQeUOgAeQCpQt+RWwPOkIrtUJO1FbY52K2BruxaAZ4caDnMIgHgGoAXYAzHBwMZbtQa+RulS8dSjgG+tbwVsCj5ZSPcMzXyxbSFg8NxAFiC4EnA/IsgqFVVrUMTarnSx755ZXGhu2FQD5IpnArnA8mZVslOkYpuSXaXZ/hrMLA7UzAMAUoAm4ASkXww48vqJ4RIBwxOrTAbghUZ3t4j9rwWRgBkQCswBdgL3gI/AkETF/NwuAP2wbm0jhfwXBXdOXAug4UHNS6wSJa0lzR8ELLtQXI5QP4FuK7sbUAC09AZ6/SVy5qf2/uD2gFuZTYz/7nRAUS/gdptwiaThbZr2upng/pU7Z3T7qU3b+Epk9a3wq/ajxfT3fy0S4LUAVgNX/cIl0ob7Pa1Wi98WzMfrXIAeQABzgZOxUbpEXd2/8cGAeZ/d0CWI8wWwEKAQaAUeA7+skgRaQ2suWF1IsujN1gbofjawADgH9IRLUhheUGd5t3EWYUtgvwsBG+7leb5UyPZeU4GMfoEC9pt+3migAjjQPEoSRn/gLYC2NDpPE6rnygBvoPZBqb6SPIanjrjdigTpuTVHGBAILDpetl0SSXv28d5/SplDdK6Z9NnAUuBGqVWSSmspcHPxZ08SlyvcYUDwYoAFflolwbTG/8fFQEiYiPzyrwEqfd+/d4XPk00r8KN3y745mlgk8m63Ay4kWiXxtCYCFz/+dDWEIdGH2hJw3A8YkyTUnguc2NKLR4vAo3HpFwJ2NQ6XhDS88Z3eu4PYO1Kn5TyqFvB0uCSnUQNrfTagpgm77/pxQBVwaaIuSaoeD1zZV4iI25P7QI8D9nZySsLqDFjV4w7kFmsACjMvdq/hkrwOv9e/HRApzrZPbwAcTrJKEmttAxxtkO4WY9uvC3jiLwmt/6yzDUgTXQfYx10IOFhhe2JrTerz3uME1uauuK8H7g6XJHd4l/4hGWKKV54HbAM67ZLs2ju987xyAXU8bnXA2XhJfENvdSKxdJzOFbIceJQvVYD5ewIWiqOsawBBvSrkrRK0j+r1wiKoyphWBqT8eqIuVYT6pia3KNNEz7/v19pekFQdBm3vWB0Ezj/0tt9uNzRfqhLz9/Tsv20TNAfkRu8PeO2UqkVnwv46C5guvwJfG1jfySpVjdZOW1tRoGApTP7CwI5cXaoe9aRPf1SaQDlpBkQC+xJ1qYrUE4H9HWuIEZKr9ymVKsrSzVVPFiHveoRKlWVoj+rJYuSdGnsjPt6Zk9/U6PjrlbxTb2+AqBrigcLPfvVSqfKcCKBuhWKBjL5vnyhVoIn1AH+B0Bi55W5Tk3SpCtWTep3OIgh62nrx+wXoUjWqBwCrAFuHAKiXDZj0T7BLVam1OTAfMNVUPt0Bck9OqTp17gmoBLRV/YnwCz0tX6pS85/23q+s2vvD7DY5RqpWg3o0UuUVQG2dN5YtVa2JSzrb1PchucsBHbpUuerzW6rsg3RHutm9nFIF6xwKlBxJRbeHBEQ8KEqqZKNGdFTJ+3CH9EqUKtrEjYU4VDDjgJrmVqmqtf74xx9I9QZFd6lp4VJ1G977cJGqtkj53eqFSlVuaL27OdTrpz6+sS5VunrjZ1epHyqc8bRwqeINnwYkFKrQo+yA3cYmSpXvxCUT3GqzcMt/bW2Vql8r8PKLVWXRFwsQ8MNRUggYda4pFtVIccsIKQyM+OVilVgCtXpvXykQ9H3pGSqwlKp2I6CpVAoGS6/XT1N75dW+e6hVCgetexobqerWLgW2Z0ohYeaCpeptZV77KroUFOpA283yVNrauDsFSYFh0J3iNDW29kStdSk01FufKE995fn2la0VGytVVpZpQM5Xe7JWXGQ5N01F0W9JphQkZp4PsFJNfQBcaqhVChOtQw8XrY5Kle+tVAoVJ9ZKV0HdenSb5pSCRWfvbjaVQ1g7Pylg9Pv6MlXTiEr9yflSyJjSo756aXqlEMjPksLGrPZpKgXA+HolUuCYubXaqmRvj5pml0JHe+/PVh87e+XgVCl8TH3YK6sMfvtOUVIAGQXsBviqoj1SILqLVQohrfcCYl2qgfLb5UphZFK7HLWw2amipEDS/5tVwVa2jhU2E0rqXerSvz+B5OAIKZz0++Rk4jO4yXApoIxa0Jb05cpbTbNLIaW995PoXu48sH1jKaycf7NAojNpf6FSYFlyv+4k58V/PVwKLcMnLyV4mDcj76VLwaU+dKSD2lW0t5QqBZipWyqkdQjvZ8qUQsyYWusjNF++OV8pyPSdfCgynw3vCdzRpTBTH/PCND5DntF1vhRqjpqbQeGC5f1LpWCzdEevTF4aLomSwk3/8xUTlzjglF0KOO0j4kib/wuvTZdCTv1ej6Jr9i4gM1YKOxt/N1UbSIt8WLYUeGZ/ciRNu9U7U5AUegbtLYyiPfacKkUKPlNOVZucTHhruxR+2usQc4/a1RbpUgCqj2mlUbKSdvUsKQjNmuGg47mz9gVSGJq6Oirut/BhiVIguqlPpmGn96/8bzOlUDRmXa9MwaZUtuYvBaP5U7uTj/RV+UrhqO+qOlAvuslz2aWA1H6wbdGuSud0XQpJ9eMBjoTjuRdJYemYAWQrtNZzoBSYvv4L06wom7tughSaNv92N8XKoQJJ86XgdNTh6FU+1TY2VQpPIxrYqFW0/GZJUoDaZme0KnSesaVEKURN/K+UujiA6OBSKUidGEynVPjJ8VKYGr8mKlUPS+tfIgWqMTuiUUrbUYyUgjVRaRGuiUaLcE2/nGd+XqQcfrY8+ixCNv1yGo0WAfsB2izm5hTYv8IiclMhTQqifnKJlEI3rSmaItVFguOl4DU+OIMelTq3VCql8E3/lRpVPm2rS5QC2MQT2WjRQNLYJCmEbdOVEs0ouf+gQApiIy5FhwYPtY6NpTB21LdrVGBKlhTIJvSkQi8fs6RQduBMGvTF1VQKZheFUKDHzOlSOHs8/HvbLP5hXTyjnysd+2vTOpVdCmitq5qEe2DvH+wrhbS+/+eVMW9A/Jf9paDW/9+m4V1fJDhTCmszH4Z1PRL33EQpsE1sj3ORc+2NC6TQNrW6hjErWiYFt1l9EWZpUym8XTQBXTo8SApwR2AbPHxYPbsIx3qqMFxbEL9fihTiptwP09PjluAYKciNCbbgucP3/hMpzM3+22jubwrwTgp0Y18Yyx2OkULdLjjur+HBpGD3r2B4Nbh5vZyiHfuSZPzqgD17lBTuRvV3YZf72FIp4C3t6saNJ8VKIW/jKbgNBV1TKehd9OWIUXYlXdSjbw6v1g4Dnz9cCnt9z1SIVUe418qUAt/MazlwolGBFPoWNMJpcIy6SMHv2l4coxz66KIfiVAG0esKl8If37MFYlNubW68NAMYOkzDhauNl2YBY3Fplrj29qSZwKfNwaRe58as5gKs50vGo5ALMLNImg0c/i9tWDAvVZoRjBiJRaQoi6RZwTG/jcN4YdTTzQvop8rBICrZT46SZgajbmdTfjr6SbODuXWR20jYt7bST+kDOlqgmyPQ317Zz467N1QkzRIO/3yHovfI1UmaKSxQ8t670o8nzRZur4Nyt2U4yG6+wL6yQKVmbLw0YxjaVaFZeDRp1rD1aEUm50rSzGGfIylxxc415Zs7yL+dQ3npmSrNHqY+SnmjUJguSc3+0Tc++IY/38FW6ynXjtzdlEy14bMysJe6Q5Hd5++7HJPNNphso5kseRZXYPMlzrXCG2rOj4ab2HZ/dRdyf73u7fTR/uv8/x26GPfQUGmv5HR/TiqzPPL5HG7P3rWXZ7FzzdSZxOUpkidC6DQIj/1QyHcSmsHABBh8Jgaf8cFn/L9nfJha9kwMumKaGMwgYJmEVgQKwGIHmYSzeKxYpap1nsVV+PemROoulaG3Pjb4tg9BIn96vwxlZcamJIFxDn9bveXSeBN/SN/Q0fzRQSF+SHRH2TM+7Bn7e4XwGf/7jA/KwYuuusWescHrVU3AYS4Qh8OYLEGmcnZt1enelrkHm+3J/tHvEKOT+5dXVKqNoe/XguGPpzOf72Xplmi+sBGJLxT4AAbDEKrPxABRfMYHYXiFCQTOh0yzBPlUYPUN0dhbraP991Dipi43UtJrcdialbRsjvXf5zUXx7nIuTEAg82gQXiF7jMxABdVeJWf7EQSJ1EFB3799r7f75BBfunUQuXkb5dQ9ijcVkf2KjleE6TKRiQW8CD2jA0z3CuA2lNQrDAQwmBpqvlez0t5cojQde5Y5ew5cxZdPz/y9bZn76JDH7MoAtBo0RDKAQXxJvHaRiBJclXh23qK+ZBgxcBDKeXY2J9PJyrjg7e7VEpda6xIvjXrel5KijDMwMFGwEkr072+epP/O//6ghrKyNwYSVGco9/QW68Lnynrs41ATMDhwDX0rDCDQTCNZmqW9eHuI/fPrcUMU8YwRqtIgrLv5+suliK7j+BwXygQQqGv+IwPwm1FwOgFUeoOvZW67/8n76cqS5Vw2uxRtOWz0f7bcndlbC82Ilk0dJ+JgdKiGo8dVJptMK+e/GOOVWMzJTXZaoiciSuTPwq5hUJ1EXoAFicr5sabuCbrV6nuHEe6T+3VGSdWVhgUqkJ9EcKKQPFLqi58nJHxT6h0kdil9SLmuq3HcWLpC4OGqkiiqMZGnEjWXR6yfUFfkqZstAiVlGTpu+MHLEllYW6lPhJHe69cF6B0IUWjbRdJSFZfXfRDwKlLUlqwwmHSytSSusZ/Ppmu31VbJavZuTc7HXH++fVWao7JBE5hoSqSK6rwx+DMbd1VKM7hJ8vFl86OVi7qZksyMtx9yr1bCIPNCkWSReh2Mi1yrIPtLsvNvz2Zcs1trONJKjLfkr7ilpQZAoUi2SJMQBA5L+qvjrHvV45rjaNUba04+pNxAANu5+3ZACwWuiLhohtX0zd1d6k4Rz/5rYjdcoXqDXtFnah4TK7xJr5jAgxCkXhR9WAarfBva7J7CriaMt0h/c1JGnI6d9f6o5ChMKAICxQmr05dz3lbbk+TlSgWDQ0oHU5C9g1/LakUzR8PXCv5lT5jfweNVQa20f4rtzvOPZamQIVRq9CwvFrx0XrRUJhRxFz6hu6rVpk9fbXyNMsQfT0rBel5qclrkxkMhMKQoirhs7wxFuV16099a9FKw7cnUvDM2SdhTK7rCluKCMCgQrv/Vl7HeulkCsP6diXpx40S53ptci1rpjvJirm3UmX19MyAjrLEi/KwFAKeDM/Y0hYIEAqDiq5HsHnzbXIOf3Lanvo1uZWEkARJPrqec6xImSYGXWFTEUEEUunfnsvo6ceVpDPswCXkq63taU6mUCZXFUVh1XQ3b88Nfz4yenrnQuWgOvku6HS1OnTYCEQoDCuqGQRSVXrwtcnoADp8uHJ85pkl8XhS6gr+aDTthUlP4QMAcSLZXSoyut9cpfiI9i/zqbfL/H3nC4eUXHRVTHaeuefvf2rxer2GcKs6LSsjOLw9c8nmDvtSHqYpREPiralXRTvbYFbwH6ELr1fM/lsrHAVOYQeFhs2wqPkxViQTZCppZUpZny+mKOdriXIVvyRjFkQEmwdPMxuBPPWdBCYQ8BkfvF5Bw0NFCJ02JZNsbiGWNUEZGlVZmU479n486duLGQSQL6rhVc4FTuGwWX43S29KjkPt5dGSvrYmlFEY+XxG++/49zv+862uru77eccH7+7o1zP88Qy2ek+5tudyYzxWBvaCA5eq1tELwkGlfig0pe9N7MlOJPXXp1zerg60ZCgBj/oTSTqG3nrahjYDB8w3uS68Oy/DmCx5bS469PWR2FUoD8YG38wlHW2vPuxvtLb7q+p0yzbaWKG0k4gvFOjIN4kgHK65OB7J5OlPuilB+P7NJOkYavcUxWwCDDri86pzIXSasj6XnYS2h2vora+DfMU+fKO3UusjMc/iYhdFIJ6YQcDAXCECsLg6uMvlqVm56QPkFpGOve9PilKjXXRD90PACO6Ys2M/GXhtsNJFPQ+7CqUysF+8YwEDIQ55piLT7w8kvamkHMMfPX1Tm4AA6SKELxSEs/iF5lS6jiJYdL2vVmtC+882EjWBgKEe4kyLTD2wWTdA+VKOtSzd8hjnIhaC8OSduqtzqN0QJQWv97yUMs8WK5LnsTr+EtdqLg55/GS+/U28uHlcc0k4xr7f3D1nBgMV5XDcnTAWL7D5rkL+I7qaCy2plKlZ7CSCJMZFnKqPxG1ZPI0PMe1dXE8nHN8UO1bLJFQxlnyhIFogKwP7YKtRcYZ6teelFNl9GJM9Q1nYMzbYSaQ5meTxqq2Z9B6mJFEuCqtNPwQUCEtzsSJZe3kMfzz0NFcZaLYy7/YVijQXETLN2rO3PHbefU9T7rceQJJwNMRi4BSGfyOLlRiB/JgucSfbg+1e7t0i2NwMHATCFMEde0pFFk+AMM90+YMSwtGRvYNpTMB3yxHO5pWBbfi9a7SV/aPf6RJX2FiAX1DjJHKg1WWxbleHM92hSQDOS7rRV29RPCHA24XYiKTQ5gaabZPKLv76qjXX7E6BV3/RZ9PU+owsFp9UZqqcKIpw9UVSFDP4Wl8YTFHqznymtpvL+fbsnbw6zQno6U7+vvujHPZe8s5MtZjLGEk2xn++i890YGHA52vOj7H+Q3Ub0+rQcV4BPvIvrAhUGdg9clgF0nTTrK69L1+ysX/00/2QSAALLfrh5iblr0NfrWXpzS3gLgqEjUBaUkkOV3i5nWaKbOurJdnoyN0OKhWwEkNDGLzm4pCAhlXP66+O8FkOvFJEcMbeapXDxreY4gVaOwBoJRtvx4ok6EWYISB5be4pZWmINumr1fStBfop7418PjJYV+F1OUzwCpfods9X1nN27I4O2gNHkWPdkowiOhX+fRF2r8UCBkf3/f/J4PzPMr0GiS2DdLJRe3H4IZAbssJa6AxriEYJ9ZTlac/cH85C3ssdgMWN8SSDV63M5MaPEPBMlVSjp1RCGUwAHmc3AYb3P9MkVQZeW/rWsgK5UkSw+QkZ7MeIAabWfeYSSTUepq7PgLcKMwQe/aUmsTLae4uPVn8UAr3X0bH+K4N7Dgg0sTFabEM1tit822UV7mKFwYIDt6ZJrsw/gHwKfaPydN+Uv01IpphW6JN3olt3XMFUKuAu/hhc7gmS7B/LOfq1pK8wFgecRDCNdhWK/J2dKs2k2ihNpBo3UhQz3DoRiCc1oX1eqp920QsC8slT1mf5q0JlYiNTuiqHb5ZUo+p0n1PBLjYiqY+c0lVjsLda45fUrA7G5Ur/Jn9nADKhmMI7kq2vvQuhM1zAXRpiUco1uQcaNWllghOiKkLodFf+WrPWUfU0wfBNtt4sMPGiaYPtnrw2AUpGztjUY4NPBs/UzmtzMgWgkYC6BOFJQ/T0aBobJ9UPDusjkejcwvL62Pf78Ngv+xutt9Z6y6W7WLqL+fLl7kLueSkX+uptoNmHOv3M0vjgnffIrZnKeR3uPnESBXa59sA5/Elf4bvE5WkWbE8mii+G3vpMjtmP/34jX8/Aa9tqvk01F0epO+RZXIZmSV6bz0XxxNM/OGjURqI2Ag7EogAsdpVTNhKxU2gInZ6P5I4xQpkon9I2dI7JFB2tVYHtu1/3VeuxJ87hJ5tm6ua18t9mgQCf8QHob64fAlb4dxYYVbz5PthVEwgUH62eaRuL/jj80XebkqnCt+Xu2u+jeGMwjQZM4TdmMFhU94z9vVM66p22eCeLUB77QoE/CtlJ5GmCVGVplxJXaIicnc95qN2ee2TQTNW89jfaeaC5boHCIsf6jcaC0lsuUTzhhpo5yKS7mA+Qv3qmu1Tqo7HI7i9GcMYgAvnrnQOMyyVst+oWrk+ZBQsUXgtlsgS5yjPbmtDRmb/3dvq+30/+zxpR7dU5/Aqs3gQYFBhMQJBlMKyo6nn2roDaVKZ2Gf/9tOXh997xmCsDe4ZmiZofg/D4nDLZxzasUGVX3/uqGQwCMDh8lqeqdOlJaL2/htp9XtbP0nZHtdfuQraTqQAicXl6wI4jiTYiEVCtUKuDe83FkalZIrjj/ccuG5B1xI74F/2QKIzJ0jZ0pX/bGv165ErfIt+cZgJF17KJxuonYIJLGKLbnOe0HwpB3egLR1cM/J7yFdVrPA6cwjFCWWD1renrC1nytT4bIIw/XKtPJ1s7SYE4IoAEjLWkL6acxi+0eQsYQB1M1Kmxb9Grn4+cG/PMtiWdhj+6889Pkx2lntFXC7taEtWKuWRoFh3mXblR8W/zsEU74lSVlqC6WF7VDwFPFdj8L2SHctNJrYz9djVMpdpre+b+XAVhcYU1BnD012rk/ChF3bJUr3I/XqoqA3t/o8kMH2lsLMO4OV0A1a7HFmguonnjwGvTWFNaUikIT6SpMJrwmkEghE6zTbbt4ZYVkh5SAXfjHqjFvelEo+PxDsRhN8hb6J2vGOTSjDJ3sECBRHW11IXqj8aJ8qkufByTD7Ie9NlGfVuXJown2rLv/y/LYHWYrnKKHCuLdnQfpipnXZFqce8ZG3yhIIonyn3bYLPJhuN0sXHGHGHG+1uJRvdL+VCAzOOl6pjGotLzUkIZTMJGROjG6zAWLzla++tVJpxUs/6yEUehUa0K0ZbtAqv3AQwwjcDaHi6NTaUmtFthUNKaEoudEAY72t9o8mDhq29kvARTrWeueyDVO3UTCBTavHP4sUrblfStReL6jIudUCYvdYVXcmBzvg8z3mtGbCqJxonXMM841Gqaq7BpVQidSt2EH/HsWtXpPtx95IBeVwcyVoZFEY2tWKGEeDOqv6mPRo1ZbJ6wQIAufcPZ4sSyMR7HBy//+8FenbFeYF4dqr02JS8rAqkQpKk1y8wt3UqUKbf0FRcXL4/y33TkITnGCRBbQjTmM7YXASL4rCOfNYbxQYHVm4CABTYG6A4KLTle93Y675OnuLpxDojTqqj22lupDjKBYDHP4hhWB/PRpbQN/ZIV5jjFCmXzbfpR43r5aKOs6rmiJKpR7g2PITSYC5lm7LLecHug0QoOnI1IdFaY/aKLACzOM9vbfO/g52rGWBx1ENWWh3Fi6YXYRLFzXWUV394Ln+VHWWIiiNiJ4oumeOS6eCWg0QgLpn75j5OtJpg/BrsB5mFM1t9orOp1vzmZvjvHGqNfRAAGF+w7nj/l+Bc3Pm7nJBr7R7/TCsS8xLlus0lwW3chZ2qWF4I99rMJM3CIk6iO3M3v+mz2jze+ci6LqPb6ReS8MADmoTOMTfPBVis6Wh0Uqggm2eMkHGRSGdj57WWFMQcyNr47imr8mR8CqgDPUmTzHhYdfai5OC6aQIBZtnaJN1kG84rbHvg3trENzvthqi3beXtOB3hvOCikp1wZJIix9f5KWpl8YdDQGWYP32KsSF7idc3zc+UZWTDRiVRj+OM5BfBoNdtgHrEGT2+5ZBvt50JVmFZEMJ3VX59HOG2Y9QsbV3RHQIukGm0Plz8SuQHkcrdlbo0x7O30Une4PGUjjJvulx6vS5zWEd6iBnLWihzrLMC9E5enJbawtBW9IMwgMLnEvumnJ8f4/MSHMqoK206qMdZ74iSK/LpugYCa84Mtwp3ac3fK+myFQ9dGmFhUExAkK+aBRuWyF3SBKmOatR+96RaEmQ2PBfk8lMlZUs9y/+jrq7c8sw3CYQo3ouuqW0wpqqrT9fMosUK5pHG4/Pwk4+HDY8hGTWg3gwH520fN3bEMsSrpUsW/7eoCRY+a0mOmUBfvWKDwrj8afX7KRiSKYiOQwCkcgMUvN1bMILDgM/Y3vAYtH1gigjt25G4eZ0zxyxtPYHWnItuynKkzgvzih0St6YsdLTkb4zFWJM0QaNCyOy68wjQxWKDw+2AajeKLpJUpS7cU2ny5d6u9OBoTqfX++rjrOfcUc2+19lXKN72V2l3IXU+5PXu3pK+GWKwO7hM93KdvLfFSFcHhdhI5P/EZ63qojj+FMljr3cXh7e4u0FjonEqwkqjOPz/n8Hv06NHhvZ0eyeVeYrzRfMEKfwIsdz7l9A19no6NuA3DBBisCOSg0VihzNQuxxtjsfM5D7y2kc9n38/rmWFd17HBd6yvVtszV+3FUWjzKco5kjsG4bEFAiatUUWe/qI5mfg7pdY3Fnak04jV8d9v5OsdbPe+Sul8vFtSqT5yVp3tpSeh0O6vZZtslt6kb+m0Da0oaZtL4vJkhUGdmNlfsEL6YoHV20hEVanoPM8EHPwxOILN0zZ0mWf7U3+jjfZfkO8x85e6X8pnBfsuQaocVOoLhapXoE4OCm2KR+7WOtcvpxkHgA59ipjPj3Sf/lptz951V2fJ8ZptMEkrUzRfhM4wG5EEoNHffmQGDqaJwdVFuzFV3wqAP6f+KMSGk+JbF8PZfFFQ0L2W+CchdJq6Ppf7to7cvff9eQS7GzU2+Prr9ZNrMQsiEIsWMVeI2efcXewyzjg4XBFl2Pf77e30rkKuuz6LbC5VpaN4wkEmL81g4AMYJrWogLdE3hvFFyy4Pv7zNd8mClpy6obbCocRbJ5jMg2xeG8VZ7dqrfMpl52ERJkKIpAdvBXCQaHcvRHof5xx9HRNlraSNnf7660pmUqOfMr6/DQQiy0QoBiIB5DVvD0n/dadL7qLJVO74LfkFIYvFIQxeY7J3nyAuvP95MabOLHyx2AF6ziCCKbSP3FXdlKhUWxdQJMOMn91s9DuE2TKQaW+MDRrGG7cHWUrDDQlkiZ1Btu92OFfKyr2/RdtBJKq0vVXxyvn8KNAA9STm2Ez7IpXxZlCZ1hH7pZhdwYoKz3yvdFVKBX+LVU5h0wzKwwqNJwEMkIYTOqm3N2ouTjRW3Kq3nMRnLH40HeXyvjvR8ueymCzVQeP+CV1Xgic8+P/mrN9dvU3hvl/DLDUqLS59qD4aI0Ty0AcMQMHQYnkEW/K+ixtsV4/tt5fiSuzLwxiLwk/BDxec34MdZ5tqj7bTqSp5ntugbGPEiuS/a9N42p59/UZQWviMaRgrP92Pt6vY4Xi/qIhFFrKYplnk3xLTh35eS4nyKemeLxB34HC9uydoVkCcRhjYTZFMfO1IUnMDJ8PMuOdKXFsva9aK/x7glQFYvEiVS6JVV+2ZW9pt+ScRX4FhQkIvq8OHWsajeVCey5nbC8BWCxU8I+1szkmy1c5Sk1cPl67czwZ2GpOpkzN8hdmEDAo693GCJ3hg+0u4Zac0QKJ7ck6t24n0UK7p/cYxIXW+ztZMVsRCHzPRd0oc69cVTwl9lA+zRcToVvcw/2NVuHbnt2i0Pne3uTVSaraTx75dYpSX8V+lPBHofStpes5L1PtvPT66zNaIMAbj4vPG6InVzvMBab59P0+HEGDvD/Lt7hQBntNpxuQi+xeohvpq7e8PReEJz5jf+xHWSAgTqyeU9+/5VDnKXGudgpVVeh2JF3PWeNoeetkHw7DLJsAPG/L3JmaxUbAPoCBTgHb+vsNkVOiLTnDmGxRIC8thrF4hX+/JIU9sq6n/M6cAL4xfkkNvXWemufhs4GauQGI/7sPWtMpVaUDsFilVYiQ+Lm7WCTI2OBrjKc4kVxBbsmpqkEEkr9n++t1WyIn7atO9xA6hXV1o24Cgtwdy1P3Zi92+2gPAWPQ36I1nVJVsz8GT4aZgVK84Wwuvf5pljufc/qmfom+ET84PN2Ru+el8+Wku1RSFBOsawxVPwSsOd85WuN8bT7aa8AM5E+Krz5YDECjySV6SVyepPYHbXOg2Qpt3k4i2Ls6wgwGMQJRH4nSksS4VuoOQXgM+jqJ4Gn2GUfFrHy4T54UX4L6O0/PS8kxmVMq3aI7xU2pnQSsPtsj2Pwo9tJsyDQrOwmS26NZbkmlyLlRgdyfURNXJo46rPB8PnhqvNoy1Aefq+R4DaZR6sVrmwBDuW+TFOuHE2TKFwoM7EcFTuEco+mtVI8UVS09DenkHP1KyfHKT5cBJfTzwWBw8vFm7Putu45RfGECA+rFa+uWSdh4EyXEi+5SydIubwkVee1G0urUdn9JtFL8VoHNQzqIQNgI5CQ/AxPoc6HiFOJ9xR2erkJJU2srHElAvLbqj8GdT1k6/OfFztVBpQr2o0wgEDkvai+OG9Jt4lIVPIIIBHL67hI/nQHjY7W34zqhfbFKpSfBQaGqFPqpEnYK7a9XqXCj9vKMmh/RW3Iqr4uP1qF2k/Qne1MihUwzuJdNN4NBiStwUy5aQIhPsSGky6M6/3+v4mWTRLz6bITP8r3vXSInDdoerqcb6Bvxx+BM7dJdLBL/frzZnru/BzRs2U4inU+Zmz2BADN86mKXDob02mJnCCKQg2hlQPNzxQqlJPainaNfb7XmmOxFoWIrOhcvU82piwGVSLpLBdDIXDVFqbnZKd+D8nyGN89FOc8vEmSTdFzv7U1anqTwFr1edhJCptks9kZ2wtm86mzfYoPVrD8AWnhee3lw05CH5/YZ1mTHuK2FSv/mIBOhK5IhaXX+kf6TBg2R8+s72BtRbSRaYPMDr40VlcL6azVOLOG+SkVyx8FW46VWKe18ZiAmhyC8DLy2DI2ZdDkRNzjSkbtTlbMVgbA3YpxP39Cdz5khmkj21WrMolQVKGPfihwrLx8ypNwnGNAG381a768ovlhQFW6w3V+veRYXhCfYG9kzNljAIFYkG+OJLRrD9ryUU1Cf8+IsL50qnH01n6Aduj+PDb5K/zZpcB03GO4+Ey05fYAAeyMLoUx+gjnnmDvz+Tdgr2SWwaxyUm7pjnygd5+c6dgu13N2rBUGhcINnjfF4wq2s99VEYTDeXuur94YpCxay91lp1CgF1METuH2zMVL10Pn+EArDInYRhibtKxMIKAqvMD5/zuTvrWgt+Q0rHCYopw7ste8xqCyXRc+7kNNaeqZk1qGJ/Ylzs/bryK5o6IrEoTelpzY2sYaZhCIXhD11yerTi4/KnWFyyoM/hjckr5kytXyIbg2XVgfjX/huhsnWKOgJacSPM1K3YFhuoSO9t8s3QLkjAGRopifaFws08sp8+lvKv9tU3wnSZM/zScdae5VJcn4z9dymxJkky8UoG/k3RyD6S0Xpp2DGmz3OJEUMPijcevdxUnPQ7+2odkXpj+Pfb/FR6sfAglKNK3wigUzGFjhKACL7WRyNXJexAplgnxKVsypKm38pEoPT0+pZOmW++gb2bjZen+x7mB1Rz4DOUBHpKn1uhxRZjZvBKLL6NeTZ3FzeyYGChQzMBY3gggknDMmylW23pS4wsctqdT1nPtrdajdRz6f3fHBO/77zT/P2F4MyXGy2BkcNKao2C05I+fGmovjoca6sn/0qw7ud1WYJ+nI3XJEFnH9CERvnGW20VjAQEW3FtoChUF4Es0bX5edhKZE6nkpx547h7/pj3pnaI3UOF4bPqPmR2wl6dyKg0KKjtbBVt9kYfWFLL1ZUBQFRNFMPo7aTcDVsKzgi+eSpV1eY150Q9wJIpBYkczbs3XX59KZIzM5NgwCXS05k9ZmKwyiSyL1R6O/6i5kRkocGmjUyLlRwDSK7ylXPnYEYtiKnmm/TqFFN3RfOAqdYelbS3Vw7y6V0a9nyqEsiePprdacHUtBS874JdWcTOx0lmhDLMI412yx2OH5KJB4skGvt+XFgXb6LEJshLN4ttE23sTBVptyIEv67H3vZZ4QwmD4LTnDZ3nl6X5GY2cZ//myjWYW5Azl93zsDmT+ixu2UUMsc/sO66IaZtDgoNL07aUhcg6127KmaSxg7PttiMaYRYnektNnfLARScGB639tm2x1CG8YixsQe2/nasMnH6PY0d6Q7Yl/Opa1tPPM9iMV6f5+CBgrkuW+ra9aJ081MYHljsecqta3DOyN+CFRmlp35m/mdjBbfbaDuArMSF6d+FjfBaANOBoCtavgyHqR3VsmIcpWhRJEIOmbujmZRj6fTU1jA/tHX3+j5e87G4Gg9435Q6xQNsQig990a4nLkwCxNp+PEtGONseA92IoCEWOlHs3KwIJlM4kg6kkz2y7nvOkLjSMYLj7VPq3MBZfRG/JGcpg63vfH43F5U8gYSNbeMDFOxcZrnMf95lwrC5SFz4CMFhgLIVM00K7761Ul8QRVvC8KZHiJGrFwK6j807uru2rVUZ7FeBCps7oEHc+NfzeNR6WWg6Djef3z6PI7+xkKhCex0GhBVZ/wqNprODwZxlb2h+FDB3b8JxkxdyeudgttWDLTsQCwqdmN7kIwJYZ7IowEzGku1TC2Rz8ootAHM422Z5SOaxpzGCw2Qrt/qiO/SgzCETzxrqrc6z3aOwuy7m7FuQ8Qo7JHuZi4+2rGQqgyo5hz3rxUqUi/TFlBiNfb01wj+CM2C05VSWYRkuPV8afOO4uFggHkBphs3zwrXOx/ci+DFV4rQeGO8zSG+hYzIjFCO5Ye3m4HMXDDL5pSV+JMuULhegbuZ9lMD3l6tHYznLujgVRAomPrhRuFmmgAf0ejx+HyzxhTgW+BGBxnsUNNJum0Qhaf9xZeoPdklMxfCdBonz6EwdMmN6a6JFPJlyNNdDwgF8IwQku3pxMgXgigLWKixHIllSa1+gEqz/uK4obeSNHI7hj9fkx0ns1DpRVCLPzvd/vfe9cdHDCextmkM6vJ9Gjr1ojOBz4EoBG+fte1zRmMNp/6y6PKJ4wgQC6knR2Mi06XHnRQcbv/FFIBTByhI9iVrZmkEwnNUWP0d6bptbAB7Ei2LzxJq5qzGC+LXMnr01WGEDfyInXrpacnOB4glQB/BPMFh16PnoXpDsFcvWUeTYLFOqgasWlqWeXe7tZgedmzq4LnMLoG7FAYNySakomnoSfovps/wjgavySWuKi8Zh9DcHn29G7YHkbiQjIN18AFpc419GvR2MG18u8G35LzsVwFqsM7JgxpZnvKVf2SDEdeG0AXlEXNhLpLRcuPmmwIS7RAb1AMx7ESRTkG1JsNMTiEY1qoFtyfoQuidRGwPkHrr/RMGte/zZ/39lJJEYgGqLnLmt29NbJb9BXvuBjIjkFep85y5BjufDQm0EAbrdZV452PuVNjREc6cjnVLW+hS6J9FaqWnc8ZkzRYEtfRHBHE2Bw5SJGqkpfP8IYT7ndArDuL2fHcrFvzazBBriB1DHI0Xp/BeGwgPuD+jhlff5U09jApqslJ3qXHmYwiBHKG7uoOoemqrUVDif/tVTVRiAXN5nSyGr444nijQb5DTGL8iEXFa8DYr3PL+vI3fm7eImEu7hXsg3mrMYIhrtPZWDHb8npAxhCZniZd0NtyfngBzuZquo0estW+rfXGkNK/oEHeMVtBMxHJ2ZfzPsNitdBLsdSV7gDtucsfGGw4MCN9l6NDfyxKZnixfJL9I0E4vA/76sUD6bEisZ4ilkU08s2Fl+eu8CQnu1a7y4/JFLJdV+rvz65CMB4u3nxL5+PG12F4qBQARdbnWLnOjb4NCbgHH5fZmwv/miEvhErDH71ahXVWo8s7eKPQkI/+Kn1z5hR1/NY5NwIcGq8wOr4OFBRXty7PM4ft4Chv9bhLj+sa0xgsNk+tlOo4sZuyRnFE7XhE3U/Z/jzqfi3hTDYTH5ut2In0yK7v83MB3uTlqcPuFgt1btThEQ7k0SN4+dVqEdMXljAWnXoiJgbsSugCiWYSkuc61C7o1blvpcgU++LmXb+8+6rNY0JpSFy/qSTm6p+ko9CVjRvdo17PNQ4FiOUUO9M1ReOip3rusYAxn+/lrsrcXmaw2/JmaVbekrFg+rU7DyzJakuZ8xd+HT892OCNGLy73Dq/c78zcfs4fNmZ7lxBahR4QtmCNSBLhYoLLD68cGrMYD1Qqu7j96lxz9JkE8tqbSOWo275vyIYHOyo/yqCMDiLINlQdPvse/vqkFe24WP4sUL4rw5w6ryMaP/tYE50/xZttEc11jAcPeJ4PB/9HdANzurOrivoVYJ6sjnlPX5D8Svm2CDiJZCuwf4Byi0ez5qJzzWe7+phdouCg9XE3AAeheaJoYUpR7+6BoTGOk+UXOjF1ckkp1ECm1+oNn3j36ood36GxuJuFWQA3/RPCF9UWqN8ThHfkOaal7l4jRI89Zvtoda9DcrUPNYoRx4bRobGP16YgXCwNyIPxJNmJ2FeprreUP0jOaPJhAQYErkfN6evSWuRE5ftZKLQ/NGL4g17t+wNAAxDufv2QUo+6i6nrLGCG68xkNYICBOLJviEfXMkaf7pWZsL35IJHzGB0hlr3LN7s+df35SZi1GIAzyYPTc4+MNE5A+K74LpNSXCMSixtipsYKx7zdeqrxoLTnDmOwEbrXRS2WesKKowF2IhM6wct8mZaH8zuEvU7sAPJCPXfvkX8g77A+z3+cf+CmR1gBoFFhyvC4zg7HBlyhXOOjuIALJs7j+Wt1EPRXekkpxEoXQlNS4EiuUjbEo4a6+yjxhkfgfYu5fa1wsz49zIfObULe//VCbAhOe6AUKwopAE2ZnoTbD3FzO2bEBGCx0HCVn0zZ051OWbJecTYnkC4PEr5MJBCr8u8bHqubeiCK8XyxiFB+ti0BxeLupsYP50wbCkhkMogWyPhJxxSU8rDo7wpgcTYKL220jkgKrv7cpTf4BoM1uwYHjZEbbb8sbdbaD8GKw3cNn+Z6xAUbvvoabqDGEI6lqbcBXQA2hU2Szsx61Z++k1eknA1Ug04mq012aSsMPvfUwJiPGyNhelrlIUXWv8/WY3bAsmLadO3l7bpUlOEe/DM0CfEUXgVicY7LIZmcNtnqB1QfhCbrgRAsUxktV822SojZko/2P3MWdRqJ8esLH2Y68Pp5GffBiLVYkvTAufR5sNY0l7B/9MrULLAa62Vm7dVdn5Pw41YGi2CojZWqW7mLxSI7l9E0tyL0etMbJ5Dv38nybKa6CWIcfEB5WVMTT5xpT0HKMRkjI7CxPV7GkbWgrHB7YTAVbIxUHmRY7/CvpyVghr8AWxuJ73zonnX2e7uUWxQEO9eE/VmazjWb892MMuWanwi3pDirFNjvreslxcJDJ9H7LRVfBsObivCE1l/HuEL8Sd/objZPR4GnlVa7lRIvecgHpt94IZbBvNMaQb3EqnNlZmVqDnIFR4z9fUyLFCiVdXuITG0nLqvX+XpUUdeHjCnmQBjkZVzn7lrwaasbWJFqUeTYTEIAEfrbCt2msocjuwY6IJUgVstlZ272VmqU31CUNii4CpnC20T73SIgXxCfG1aedj7fGxzLV4cWKI09Di4exIuWFeE/GiuTwe2cOxYceqCVnOHusOjuQz1xtVfj3kBmuqAp1xa1cLj0JEuospCN3PyV93XQ/BGy9uzjJtBwvNms4Ci3aMjfEX0D1akP01JhD6cn2NUTfmDYSLbQ65Bom87cTZNM5QauTviVkIkBPKZ8SpFgnYVMicZJOh/IaJwvCiu13QH75X4z2X/ZQ5t0Aatz5I+GE2Vm49Tg2710LxGF6LXPThRWBUpRz+2M+Ig3669VOpsScq4+cmsbx2i4fr2PF9YteiE00py6NPVT4d/IDyYE4fBZZtNPxmovjK7rTPEt1B+HJtf5alcQ2TgdTKTEWMKgNnxonC0B5LRDKU0msaLlNfnCoApCyPo8NPgZRfbabgIDcqe9Dbx23GXtnPqcoNajNT4itTYc/uhQqpYbOMIO48Uh1cOclq3J5qQ/7Lljh/PO7pioAigw0JZPGIKpDhxk4kDthDbVaiV7s8MBG9SBKhYgTycZ4ol+u995OD5vl5FQFD276IMNLfdov9MOK4e4TxRNegGdJkE+j/ZdF1F2dFjAg90P0PUShSA03MXpBHDwZKejdxn+QvrWccf7/5DJ+o70CkByFFe2ZC+DR+lxd+NRYxNYKMTYSRWuQ6tn9KzBb1iipprpYaPMDzbYpj4m6lFdYLrGixLn+HmAexRPXmURjPP4T0ve7sBFJb7WipQdgMJ0h9BOELQ35q9Mjn48sRi73yhQ8+WiseO8vAa4fLXUHjUk03V5WGCDm5+5ixhGK1JK+4peUBQyE9GIlNZcgmyZ6LaCYMBaXD3y0F2II747WlhcA6piLo73lwiY2rXBITOAUxgjP+P7Rr79ec3esNNMDUJ3sXYhaNZNehdCpIMUMBjXnBze5lxfGki8kAivqr08A7Y5E+tayyibeJu4oUH2r4zFjZBRG2Oy4gLmWgl4AadUQhzgZJPSVuuuTm/gt9MKQGmE1Xfc8ubsW4N4b32lsoj13+6EQMf5IBO7YluWO3J28NuF25ieEih0qqSjeWHd50Bnbxws2IiHGFwobYpGfXlT1Qlzwt5NIMfr1xi4K8luMCA7/BaPoKuS3iDnf9nBB7xwX2r2NgFE/DYQJMISz+Qt/DMbvVT95dWrL3PMU8lkgFrtJuducujRulnae3/KZBWhV2QYwel7PM9ttRtFdLN+rxPs1LbcJlLHBtxU1P6IKRdLFu7lm299o44O3OZnil9Q5fO03cndMX6XS11nIK2Klj1R/JDzJTwDa4mkFz2lY0RA5faFAJ3d3WEsqaYyip1yCprAgPpvffJsgv/l0F/PXuH6KECvxUvWn+ckWoRNh38HXUieEwcq82zHaaIynn4i5/yU/eWlPq3n2w+rq1PaPfoVWp5Bfn1BaV8Jgf0E9B/gF9VipOzioFLUGqqqE0Gm5bztA78LNgUadCM+Siq5NVsyibIhGylS2qw4edxTy6gP8ZL6n4Ua/cDxSrCetTuS3iByj8bCKvlq1kwgx74OFOW7897sZK5K4xqyJl5napadSPdMd4OvM5zS19kMg9G34wWGqWnc+3ss0UXK8zpLnhABHU3En9FGesTMnUgy99TAWN8i1fHqosYqB1xZMo8SYIRCo8eL+0ddXrdkGg3tMTTyLEYjGm7h+sCMCjbEYKxRXsLfhthFI/oGnyN69zZwdK8iVBx/+ePiJsyqSMeF05vM1QS7Osr9emcVAswXTKTFmMKgJ7TAS1SsDe+gMQ62Bqqp2Mil2rr+YSTyKyn3b3QWB3fozbJZvUmOX5r6fN0UxGcTEihRPkyxib25PIpadjBV14dMCATq5MwbHBy+zGHrroUxukGIGgdsQP/yrRPmEe4jcsMJgqmrufC4z+0a0fSLX7P5eYG9jhRptp9eiFwQxRsr6PP77cZQenkQxu76hCg660M8ix6pJGewK1CbgAOBzvoFmy993/x3uoxYjuGNt+BzrvwSZK/Q5RlBKDq6yXVexUKGy3UCzB9MZ+Q5gttF4OMqePJksfHFY3dKGfb9fmlqT3/Km+Taxi2MRbO4lptwbiJUIPnptEXOtKv7+4q/Ifqq6qzOaL7DFkasT1kMUHXoaOlHqzN/ENYKUhTuapnG6VmrHGKxaH45ZEF6A3iHYxRly8W2zJccroVCkzuecqtJvBG5PeonL0yti2YRDnafEHYLpTBHoVr68/RCduutI3LpdN4NBdejgKUHf7skQI9uRYqDZyPcIvXEStcQutqLmBTF60dFK9kYvdgY7meqoj5q9WhnY1yBq0PSUa7bBuNx5jbwwd6E1nb7BDo6RQowVjriaAkf2DXnc9cdsvD+Zs2P3j37SBlk5HL3Q5kmqAzTexBiBMIMGgXrq2h+D794Eqqj7Y+vdlbg8zaFv41qW0eKqbLeappyJ/3FEEA73lApfQ4roxvCTjfE4pxI31K883TWGESuS5ORZ3Mz/bve+lEyt8UNjgSvoP1Ykm5MJ8Bj1SO+tCR2R3BHdKKfZYBorcQVMwavDHw+5RsJGGJPpXKVZoYcNMawNKyoDO3HSC+p+cNh6fzGM3QSpIr7izt1z+0e/mQpFKvdtIdNMUVEPmTmorNQdgKuCn/7YTqH4VqhG80Xd1YnX+rO7VE6Rf6mLF0u+Bk1sqIfNMbx4AFYUWp3P+EDu3se+WmUY499vklyRH1fM1i8zE1my2nJ3fbcicO31SN/UB+uPHki3cX8UEtgPssJhimJuz9zzSNRdn8T3VESm1ixzlYKlHk5KiFCkWM7ULuR7hJFz43D3YRjryasTOVm6xTn8ZmSyR67ZBkwRoaMeAY+aH+uvz/c0hPLHpmSKlyj01p/qhMp2fbXqQeGaTu5LkFJ34GyAfLt5RPtwpBgfvEkrk5eYE+sMY55cORwjfWuZn0E/PdXnB27EdlS3jYALbX6w1dGUhq8M7OEshu99gdAZjqKy3fE4sSI/JzHXeBP5SvjNPCpl3lIixWjvjREIL3nlpv2jH8N4lLahDXC1XJc7Hu9kxYwbaA4xl7w6tecy4g7yZn+j5R84dJt+xITfCRFUtuut1A/Jz6cE4fEzlSmJqxfzIIhZSz20et0LZ4/k1UW+1RjG9gpADepvDqZEcJHdI7epfhY+y6uD+8xaWUjK9i6BoLJdXfgkv8UbMTf+hX8KWe7kQWddALYrBQe5SZViBoGa0M4y9o9+l4nZ8/efuDz9cfqml/XRGM0bkU9mqWFM1p678WVH7TZEY+yiuIK+DRuJTKhstw2JJ9to3eTV8FKV86WRZTqAezB74I6GFb3VaiNgcrFDTcnEMrQckxXEJMrV82n9U5++vfwGXWC4LxTEitUWBfJE9773ck8IYXD01p874ewR1N+yX0RyR4OYhW8lsizzYIpMds7Fiq7nHIhFgvTvkT8KteduppG351TA+rTDH73sJARTKQX99OiuLHanoJsOT2+15e7YQBwRKvJPb5mECVIFqLJd28Plj4TEP6JqhcGmRMKWJA9GvWtkJla0Zy5/FFKJu8XpKRWmkb/vyIkVy+MH1AxtTl1xYvmRoCWL3dO3lo58nqcgpeaT16Y3Av2nz9Qu3aUC1VlI4aH3AQwAflPlbiKHxdT1YDL+oTVKZYetCESMnUz761XiYMfu1BstkFMaU23/eY7J3qennx7hDiKQ3B3T+1IO1s4ZyYb7Z9gPUiYUTYPp03stRii95Pc8dxxbfKtWTkuJFU2J9NfEhNDpYLMxjdfkRM2PZyYreled7WFMNiso63znKAV92g699RLnOlPv9VGnEOJJfwwCMNI4f89uS4l0VpYmaNEQOYn76BJhLD7U6RKHXM11gMp3LiWCk1ammSkRjO7Esgrf9jG+2v1LWTqD31nIRtLKBKC4aYHNQySH1jQZ5IBvfwGRI9Ci/uokTuQaI4LNrzONct9GzsvrrwoOHJYSwcQ/0EfRC6L28ljTsMv479eSvhLkE743OAOxOMdkSBUsPhY5PxoAt3A4G8jr1MCuETSt/vokxhvFG0e6D9OoDOw75LEVKfNupxYFtT1VJ8hUUyLha8uzVh08Ijh8B30bIXRa5g5kOypN8WiFQ538lgSZ2uUvNb+/siDrOiHOyOcjdZCVw1HMYEBzNgTohh8Kpar0SfSug/ePfoPNhu9dXXHn6/pI3CVUSBdABhp/CThUpfQF+lQKNefHM4B3POX9zwdO4SyD7S4W5/BD30bXc6bAC8pWOEpdnzty9zJeXkioL1sfbh4nD3VlcQn/AdCPNsbPw92HadRdR8nn4YfQ7WR6ur9WtxngrewJle1mGv+l0uN1B+B4RAR3vM5hhh+usoYNnWhRHzlXiAmf5Xs7nWl8eY4aUCWLh86wT/C1Snhd+W8LY3L0aqqmiSGMySr8++sZtQuKnBdecnzG/tkme2AOgSDcvKG2LokWzzeIz4vfGnrrEgfEvCPpL5hB4Ofq4I6eJ66b/fWab7ETbm5S0VW2m0k81WovT3KTqxV1oyEWNR6XxVolp8UX4EXzbbLCITHBNDrQbEzjxN2pMCARVhqiEV2U2KOO3P2/oUfpQLw8eNzzRntvwpICySEHPqcaB0BXUssz7WB40fZwvSTGRiR9tco0WtPpKhtQdHE1eW1uvbvQ25Ts1kdjjECYwcDAbv1pJ5FCu//V9DQmEojyqpna5RGXeVAl41hWtggvOvOZ2H2L7kAs7ioWptGevWf8SShNFawyNEvnU0Z/X+7t9Mmol+CrbLc23YdT8tosAF6tuYboyenEpZhUkcHN8aKnXIPwmLjd9oR6NUyjI3f7obELZiwoNiLJM9veSnUOf9KPTo0vFPzlNG1Qm2/T5OcsefU+TqcuxY+3VcZa26ieOCB3c4EFChpuEtM4d58hKIpYCJ5mxc5wexvf59Eb6Nu4n6UzUx2zMNp/k9ZmAfF/+X87h7+p4FxzGyBC8WKo0wH0Zaw63ZlGd6kEYLGbMenF8DiCzSv9G7peN6O9t/bywI/2lEtlu0lznxpjEcJOMbcfCv1OOxCMmyF+XBRerEXzRi95tDyZRm+5BOGwoOyzQNCgBnjMoqy7Oke/HiqiMobv6JSx/jvy+cRLpOtAH4CLjbY4jf+FkCvqoo0NvgSZ8pIfknWOfizjpo1EBVVLsw4yvURB+25dWGEwcXk6ga3Pg2cyenLYD3qTophzzXZDB8AEBKUnm8Zp7D+NW0sMmraavqHJ388JUjX+/bKMvnqzkylFqOJalsH0lMpStsEETGGhUvAD+KPR1x25G7tNyXpz6kqQKl8owD6fpj9WFAVEIV1eFwBqFSInnIoY+0e/vD3nM/YnPiYbzh73vndpQ95pNz0Yc4ny6dPx3++AHm0V9OJWg/A4x2SWsOt6blUFj3D2KIGM2REZmmWV38nMZmGORu15PCw7CSbAQO4Drecs4/a02jOjq4FwoAd91mpCR8SceDxlG+hiygrtfqBetzVk65sKbN5OJLSbAaL6IVHz7aVxm80FMuftCjPqrk7ixiO6FQZbUollDHV6GJPhSEMi9XTT5mCrFR2uZxWVhk+nMBYv94ahzoMe3df0DU253RDeOIka/Xo4njXUAKbYfV7TI3h6p8K3sYzr4Sx+ANhqFWVs6a5CWT5YGvoc2KMttmqT0XxRc3FsYR83bbyJsSK1QrMoCQsYHFS/LXT7vp7THDP6KhWgb7YsvfEwjOGP5ysvDWe9zjUl0gyOjz9vSqZ4iVwRVIhVSliSjfGELZFo+KNX+LZQJl+kdsH4aqjdOM74wcxxEZgx/N4jOKMXIGiHDGMran5ERyyerwxsMxQ2Mfz5Vgb2sFlOw7tYFX5IlKqc2zL3j9g5R523Z4PwRFXp5GiJK2gcx29hxRaTMON54srkJZdo2VdvLCOaNyKjuoMIJN/i+httm8D//jYC9hn/qzQsBGLR8YfIh97n27P3RD6/ULlShEyzvnrjOROfxFw3CDM8uTtWEO+6+sJQczIxjBuxIoWLsCLQ/9bxeC+TObwqVaX9EFBQIVbJTiIF++7PPQzKu5uFAqv38Jygk1UY1i5/iZkV/h1gNAUUOzzDGO2/cWJp4EaIuj4ad+G8r4ot0SiUwUrdAfs786+P02dnl3BQaW+5aDwnf6wHRVIR66mL3FGAf2QXY4M3Uaa8iI23QqZZmSdcB/KS7gINC4YZOETOjdVnO3K8pz295ZpttO8KnSpm8/edh+s4N8TcX6JGX7WS1+sUwTQ20KhSBkALFjzpwTk7trdagd5N+0fff5GzYwNxWFCwDd2wQGGcSDZEztH+i51vTknL05xB0zyYSvk+l3I5u/eGGyO9N1ogAZSHaUwkdjH+8yUrZiSMPySvTq9WQb2ObYVBQ1Fo6DI7aW3+HbJYpdHeS1VeWJkAQ6HdO0c/zlPL4Xpn3FjO1CwAAuXzLG7/6Mcs5tPU2sBpXX2q9vI8Dh1vrSieOCuoaJzyVsbW0pnPR7CzjcRBIT7jg0pLVkj016vGeRZkFF5J4maFL5iAQCd3QNzI58MsHqVvaASE7qCxkqN1qN0xvHgfTKUKDQtu1UYguWb33IOcFSyZmuUpHdt4XXYSNN7TpzBvBHK03t/krhR1v9X+mJnFdqbeCATNDpCcrulZckXbQKWiaXgwjZ5F7jJ7vfk2xS+p9w0K5lE8QabYKC8jGVfWGzkGWw0g9yoXSpwrs9j8DhrDFwoSZKollcZ/P8webQ06Wp6Fs3nFvw2zGx1Sw7lAY9TMfV56UvFQ5Qdbs0jFGyeSo72XVWg5uw4WsTMho3fk69EQy1p16Ph+R1CxYIbAaIGsDZ+jXw9y688Cq8M2nEskr0wyIOFba6ZXy5LIWexcF8h/++535G5mkW9xOuRbSMV2uqambbqiTKMKKhqgbVxtSqaxwYd7NPVS2oZGzVoldxCetGcujf8k3ChuFHa0pC8A0ZazhTbPLAoOHGgv1emb2uV0TfRyeCt9e3lp6FQs+KNgmlq3Z29c4SZPPokVSQsYGHjzO3IgzS07hbx2LnYMtjq5jzkU49QxVlF8tM6CGZQ0pW86KsrzpkSME6sVKrahqj9nG013qeB+tH1R7ttCZzhexbq5PLO9wX9yVwQQidixmqaayVGtMNgYT6yi2LnOQvUhO+l0TWrK6wr/PlNfwGOEo6rQ6v7Mg+r3kQnDudCyNUxdOfxvuA/ANZoRKrGz0r+ZgQOIgfSMotwTFqH6eu+rt23K4koeRCBulYqFxbAZVubZcE9mzbdn7hTFjGU4l2qBwgKb535+j5d8OJAZhB5dhQwQ1B1hI9ElRlHh23YUCJ8/pSh1ey7v+//RGP95VaFiwQwGUfNjTWjHVb1ntP/WXZ9YhnOpc0UOv855gsaeCL9HhO/GDwDVtX9f5Fj3j35soiqwAbjbTD1Pp9updusj8bxKi9ZI8RL1Ce7LMtTppa4VyXAucbfMHVb5TlRVDB/arKLDFSI/78I543/PJt4+C0DBvtMoLbdVarrM9kOge233F6qZls7hr6dcsvUGxz0awh+Fqs4OvieOaT5QtaNwj0B8AG8sYFB1trOJmovjNcCbtdDqaeWkTlHHI+9m6kzXcybtMhvASfECYwrEkYZo3OQ5wOjlzmbHj5HPJ2ZBAFz1xgjlcPeRKADK4bAfRRGKjUzzLa6vWp2jH2or3ZrQHsnlGK0/hYNKb/Mc+/1QfIKFCg9XkOM5teGTSdzwhQAGAnWSL4TBSo7DLzdRK9YV2b2dTBG6NxARbM7z0b+jb20BhrTn7vsC4OY4kTzDIpqSyToJOIGiiLMRc+Pvhj8e1G10FUrGtkbo3kCNX1KD7c5x6n20RJDR3hsnll6QGYtoSSUrHKq8QNGN92NFcsIiCOSwhL4P/SB9MUOz3OB4w+1zSQwtOwkQPtg0YoXyEoNovbv8EJAp0GERBKoYyeHPtzKwubo3gK7IVny0znObg+0KRXpeip1IBMDvugUKq4IHg2jP5b/jCYqiCn80xrUIYru/0fItLohIgK1OFgFotMVtjtcbRX5MU2sBMft8sNXYQ8dj9kchdkCRRRC5u9bljhC8snw0RTFbJiFwS/aQadb1lHnNz99LomhDLPrCoAowe/zawxy6i/mamxHQZhEEqidIb5R7go1IgKd4qeJ1ItbuaSCOHDvlBckGv+5iYQ5LAVOYPdAhVimcxVHFKjmHv7b7K5ovFlTIYweP88yW0zXOAdEyiaMlx2ER5FcvY0s/YQ29lTIRYlImQUOX2dELojZ8YsYK9F7G9gKqAL3wQ6KP+UzzWCTprVQHhQqYnLqWIMRe+WEALLIIYrT/lrrCNdjgEHYXC5eJxXJmBSxnGwzIrqJxarDZpEXS2rxK7q5bB5lIHkZZBHGkIXoGTzPISU9WzCNfD48JyJVI2p69Yf6qmIBDntmtSooE+fREI1cOh43g9SWWZTCIfqrqyOcovtB1OFbK3IHHHfy0aYMl44M3ZX0GQbzVFI9SQvVH4zyzJe4h73TINGMZbkGBOoc5JoPYELOvWhPlCjDE0OLr9tx9CIu2DuJKf0VE8cZ7EkJRZy+XONfbm0T8IozFDXYxG8pkFPQDZGRoDGbbz6G3nr6hzaBBhZvucliCaWI8moz23wTZZMD0xfhmfPDSBIw6sJWB/QuifqnD2ZxhKHkW11OuOSYbhMNCIPNXqO25hz+fbKO94gZbZQGDUnfwcJeYIommDZFzMjFLIQJ6//b+0Y8iwNSB/V8JFD6K5PA9Y392oedbnDbfkbu/9kchoaKDWe0lb8/BJbWCsFNo19PNXYoQZfTriZcqoDd3MI12PmWKgFMHtjl1jQ/eGQuRiOIJhiFyjGby2EjzbbrwZs/YoKOCLKyt4MDBTXqKUo/230NXtHMwM0WNk6ihdpcWiqJPUQd2pj4ZYxnZBjNlN2q099Rdn0ctEGDomGBPFihUofCFo5qL4xCWG4kyJYB0+nqzKzEURdWD8GS956U4h9/MlMORMgAfBAe8Tl9U+vdwzmgCAYEJsqpIuWb7EdQkvh94bYeuaE2JCBTWS9UXBss822GpoShi1kGlRXY/0KgzkPg/1n/ixZJlpG/qI9OINCo5WoOn2YLAAv9bXJbegI330aOnlw9dGRt8qcrZZ+wP9MYOnMINsUgL4OrAlnu3g6sD+yRRPjEMb5p6Xp2uK/zeSs3bszYi0YUk0S6lqvWUMVADk6L7h65o7ZnrZwGVAtrtuVuCKIq4cnB1YP+YvDqxjOS1afqWVkdef+tyYJkU0W5/B/atKm1D87WfHzuuzOeY7CzU2zpybuwpVymi6Mbcd0038b3phWqnKGaWkbQ6H+wcwfjP13p3Ja/NrhTXlCBab7lEckcBxMumeOSrYPEiiaq95QKmXrseJ1EDr40KcNSBTVHptsz9zXR/dr9mGd8tHfxIWUP0XPGFAqFLD+3VHahdvoQluXbIekXb/gewuFPPJq3NQ2+dBrDaVGTpTFexHHggaTl9azEkDIojL4a7T/XZHjk/mkFASI/N2svTH41gTo/rcx8fuqLtfe+xiwJstpimmvd2ujRRFKHYyTT/wPfV29RalNtZeiMYRoxQjvYebSZlqN1K3SF0hi0KqaHNF9k90OjfMWIE4tKhK1pTPD5Voaad9K1luPvgg9hltEsd2E3NVbKNhmVE8cVnM80z04IDZydTZc/4IDG0rVTlDPR79H5V8DiE5UKW3swqUNOz9O1lb6ejg5qlYJFz4+3JT7Jcs2UZUfPjljbDstxdyFkGEziF3aq00G5GcEYB82NG8cYHh65ovdUaxmQC7Cv1Tpp6Hup0bLDVgW2InkuueLwxjHDOSKB7y2pb9j59XuiSQmtKpHcFjFSG6uDOUYz7ia9i/WB10Re/Gmg2dHAXrh5uvbvyzFZhWP21cDYnEjr63nqCVM0JXUosf2gGAR3mZn424I5pgy9LaRsa8P2sxEtkb7lgkqFZDApsxnOQySzDCJ1hhArAr9VeHNF8YQZDVUJoX7yBmflCQV344CbZbSS+7t4VgO/nUx2PGVEEdr7FUaCPoFsw7D8iZJoRi4Hc2+nlvs1GoqqE0NpzN0zuaBjxUsXN3vja+EmErTk/rHAEWH9SHG+8iQc2O8BQ8/f4Av6CpMEP/fKLVLX2Sgnn6FfiCh9BrFL9ELA5mbhJLMaMDb5MnVlQAKdAHL7wBNEva3kWN6sKdoPvkNLtryWFdileogRM1rLx0gXgo1BG62+0yHkhIKe/zdmxiCdflruec6Z2cTnnmNXgB4PJQx3k/QkHYrGAIAiPt3jZV0BribLNqfSzAB0pBAlStYUoG+2b1oc7RTH7waGhc4nAKbzLGuZzzQ5mn6/gwG1zUnnZWTjjHH4lrmCBANAu3NTjZ8d/PkzRPo2xGC+RrqSm5Q/ugCnSUyqsQeuvVZDECTPO/5KPDOwicXak96apZ0VRQPtwezHU7qiVJmtC+ykzCBjsBSCJZDufC3PQKvz7ig5R34WTsVka2lsibV+9Td4H9F4xC+KTJ6iKAJZ5QtgMMwEGwRv8Uaj9MbOH4Y8eK5Igs6Tl6QkfFfwfIrG29e6C9hICdsafbffXa6HVuUbVCl8435652IPWEDkhTo2Ki3yM1P70H0YbT9XZ7geHAj4z3wYadRPzyEFPMWcbTSCOqIInWOGwJZUYxGj/TVqZhCITslLoXN8s0Xa9YN+ZwUCFd3piVWDf0hDLanv2TlPN/kgoVJZCHrkoBqE1J5MfCrsVgLapl7g4MhCb6BJtt9LUetZnfMDIdD9ULSbGv9+mZEqUqQ1D5wW+UPgJi9hNVswAM/XWYR7qWvfpQKMu8fa3cWKpwr93hT8aZ2qW7mJ2Dn+oh/lrw2fMgrCAgaHzAV8IaIicLEJrTsTzKsCUa3YeDnK9xU6JuN2lEsHhAqGVluKg0OJDjzsGyPa+94p/Wzibm4BAcIEf6sInJVB3c6J8MgCuRnDHBxwUQby//uESc9sydzCNCulleOX+0Tfw2oqO1mAaWxD0UGjztKID7MM8qwkdTEKru44b5DP1KgdDGOe7/PPzUWezMZ5sBCywMrHzRw3z0HtPueaabRCRUHPoXc2zOFq5ppJjBg7VwZ1NDH88rt4KAXr35V+91Pzgm1V6zQ547+9v3hVIDjzINllcO0ePdD7eGVvalTLbdPzHQSZlno1Kl0QeK/eEswD/2TnBJrRy72YGDjrAg4c/X/65bHJnF4qRuLtcdbZPDPdjLN+8lrnXX2iYZXzwtqSvpNXprtDpsOGQuhDAadpuQyzGLsofhAJAhW9jFP21CuDHIPEW/1JKNAjIBGJD0X84SG7+syn73yhJfYFs18po762PnLEiSYf7YnVxK1WtO/L5EVWfrV+kqTWQZMLFUtfKKA5fVQE+Bflnw3HJjEclSvRThS/8M4EmfTBFqTuyN6754MPdp+p0j+TyZ/gLFGVP1TSxA9RVILUPZouPVkahtd5d/1xVyPVh+yP3bFXrBnhGSPzTTX80wtr7VkUQniBn9PD+0W+w3UtcIYTBKLH2bjFsdqQlBHBn/gRpInGR3bOKtVih9AKIe+Je8jPkvvbS+RJ/1+LEUiC+i7Ezb9nTV635FmcnEToc6GFYIDBeIr/5IwVDrMwVi08DcO/oHqvQSt3BBBgAdBVoTCTuiUyKa7uMBM86sIr5LkYPa/pyV6Fk6sy7qkqFlpH+KJShWb48jItz+Osu5r96augKIHl7jll0FzJEKvkX2jzvDGTKqtZwbSR41oGxffOavqm7nvJh3F6G2h6ulPX5FhWH3oVup9Aih0fVZn6w1YuOVgeZAOuYILKNhlnsAnhTxZsgVbu8E8VQHPY0/PkzdL89u1UbiWKHNX238SbGL6k5QYdK3p/XnB9oyjuPfj16JHcErykrsvRmk1Vo5d5wFMBvKLy7oXdZjb+CPgOvbVr3kCFuI5wzVp/ta8hN0/QongBOtXWS7Klqvbt+xHG1S+LKhOBqFyNjeznMLL4MxBNB3ua8+TZxjhF5ga+OPZ7Cw3WRCgXXXRESmfALBLK3iW6FMfni5AIF/QBlGwx8COA8PZWabTQogpKNtA19hAYka+vrYqk7cC9l/F1LsKfnpQAoLQGXaiOZOoObvFza9mah3UO5HBQge6pKXOHXsOx961hG03pTVXqVBiQby01v2oae5xvv7HLfzzjKpOI2AUGlkxIrzuG361IH1k3Dz/8sii/qwudY7wXsiLDu+py5i7kglMNhFy3pC8BfUhNumedeZF0BCnm6nvNBE10dPUIitZcHbvduLnVg0za1PwpRMTZRDCsMpqxNUNlTNa+nKGY8V7B5k5YnhvHqL4lfS2HD412+0Z8ZqMD96X05km0wlMkwEhsv2h6uVQ2vkKsDC9q7QSCegCRY7LbLWQiqqqARL5FL7GLf70eekUfqBt80unJ+ccUp5Yn7K0i7bYmlgpB2o+7qjFmUB4hVwk+E3OH3TiyHGzkqxUacSI72X3ahlbnDIvkdyzyBb44KBjKZR8ag/vv/e4aGW0l9xH6crfRvEWxuAgKDitafroQFJnOB5mvknGfwxgjEQymDb1+nyNYbrtlPH1S34iz1wZyeciHKYHp0f+3hlGnUgS12riE0uiCoaP2Zptad+bw88yFWlrahyfMgDEI5HIYx0GzkGvV5/9Uu1zLXpy/z0lTEcf75FVodSQfY+CPg5QjyyfreSs0zW5c6sDS0/pzo3mBmIYDbvFdg9TYixfcRmTdybhzpPgxjN35Jecld9z7UeXhGRBxz7QTEGWhUMt/eoI9Um4kIiWwiHzR8naFZAjB4GrFKyNlTNYP3/JmJIVZGg5ucjBPXGYZG7qVLEUQgXHtg89oV5+AK4lwwg4BOc5hGfuOKkAh4mYE6sFQcpDt49lStn0iQqp/oqP4azuJ7O51lVJ3uxE7EVm99yrWBltaduUYdvBn+eKIFwkt5crnEiWVTIo4PXmwx2Q3Rc+WnmSzgdG8wzaGow92lkqk1tAxaTxHKYK9YRuv9TZz/DPpHtRcH18ZURB5z9KvjTWPspH1YH+vi7zI2NbSXqmasDix6cSsOCi12rAe88V8VH60OKqXGh6EihE4HXyvL6KtVO5kQ/2MtlLgC13rpiq4wlud4Pz+T66lqDfI21ZG3oe8U2v1vsRv+D7Vb6Um4u0jBgnj882T3BqO958E7FKXKjLjT/9pYxvDHQx4bSJG7Yz0c4//YmHk52nQXchCBgGCBwkVBgx/NkQ+999XapDqwNHiILWllak1frXdX0ur8B1CXpEIoh8My1pOWFTHGRMsXjtGSGfFCqZvFDg/RuFO9VeoKuTsWP0Iic4ky1ZK+sFWHWu4qFgh1YCFeQZ+xvz8Ge+jy3bOwEUlfpbCM/aMvy2jJT4zHLSmOnRh3fnElk1oH6x5Aht97FG+EuLdIWptH++9q2/31YkPoyG2pAzA4S296Xopz9EOPleWkOrD423ArVBV3IBb3lIrEQQ+14jtn+EVUi4r0jEeapkSywqEKNbAmRnvvg1Nm4CDQ21KXHIeht45efaMxkRKW1KQ6sCwp7gAs7i4VplEdPB6Tq2n6n/Mu2TAW+iFdxBxAeX5Fefvr8cE7zWFqFTtCIlF8MRnWdGSxSg+i+QIryKbU1ubxR+POp8w0rhJndomwk0h/rXJMqvjoitTOQrr5MwCHiyoiEIvaH65pxnlSptZQkFwuyYoZIrlcyNWBfWkCAsEQ/FCoPXczjfbM/VIldpjVcY4pWjenImEAizN14RMiInDi6/Gfb9rRg4Fe7Ut1JY17X7Vib2P7XpHdB1OIIpjB+VdM4zixfoxv+2Mwxzrga1rJJFgv/GGUmc/Y0gJ89GtsVZ3t4ewRPU6Vs6EMVu4J6D3aOoe/CbFKoJ7nR67IA6EcDtPor9Xfk6Keb72/OKbsUVol9yzufDhXGwmZZgDXjeS1eez7PXiERNBHjKZhhsAYocRPwv75jsc7fVO7PHQsDQASNINpDDZb8DQj5g3H1I1uYsHhLs5jJd8AwHX1zfGZNHdO21zOU5Dayx35vKxpyGKVXiSuTG8MnQFcPk4DVAfXihTdMgmPcy/4vdfyxfmpT4UI0tO3M1LDqjGeJnzzSkFyuWyj9xN1o/7qcFk7LX0sEPgZ0zgWweEGsWo79Vcnv6q6AGRl00SpCGGG3jpEpx9m4FDh22Zah7n83xY6w1mQXC7DH73ydI/gjNIfbsxXasMn09iaqMdEDL98ZTX85SvltRMRpiWVbqkADZ7665XeEY0r3p/o0RbdAUT7R7/BVqfeIghVJ/+orQ4dhygA3NWUfP4Job8VC+0ewGI1NdtoCJpnPpoy8oAln3rqnr5qzbM4l1glmnMQ7SdiHlef7YcojKpsHgp1Xxu+jPXfy16A874t6Ys0QiIsSC6XR11PmV6LIIQFAhLlqi58kCef+WKFb2MaI92H49yre6WkHQxfesvFRqICQMbuGdLurUrdgQnJ5TL++7XdXymK2TVoOShcUkIYvMK/r12KYHODmHLvxjS+4Phd/kpkpQBgCUVyNU0M5CGL9jzPNpp3aUgul1X8HZ3GWIyTqJ+oU4fWeJqlN72Vuq2NdB9yT58tlBwHtj3RS2JW6iORXx3vVT5Xq3aELp5cs9MBmjt15m+Y7qLR41Q5pUdb/K+sryizCEK8jl0UTYk4edxwK4oviJktdnipQ+6hJG736nM5Dx77lRRsuQGgFJAB5Fz/h/gRElGVYDotda1DnU7B+cAyz0ZR/LFU1UEmJcdhamT2bsQKhZc8WZeZRn+92smEGCsCckvV6PDVVU63EmzprVQA/00uggXB4XSRY3VQCH5yuUTzR/zWn5rzz6+/3gqt7qxCx4JhhcM0te4q5ANOAxyPEwkv+TDTZRo9pRKIw8Sc4Ja7/TPneTTf4LDlE/LsclYJFWc8WAjgMrf1UwqSywXR7fzTiRZ+E4gjFIhVEibgcPH1NDXr30tYUnv+/onJM1umof+dStx6t+s58y85BxsCImwpOlwB/lBG88UZyHrfk+qMYVdTDcLhXLM7ID18cC2CSNvQ55G3qYsgPCk4cNPac/r8AjHiO6Zxi1wWg42AuZU4YVWKKwXh7gLGf7+U9dlL/sbK3bWwVcHPfDqzFD+TXF4ue1rvr1AGw52Jy0kr08kjmjZdO/XklYn8oyBTZzZZxiszaCD3/MpAs/EvZ4ktTZDl2Fde8sZODdGowZbt/teWf+DRU/xMWMDAlZfLyE921E4ipokB98MsjMmqTve1g+1vpKo0QMbOOIcf02UbhnNGbkVtf4GFGemsHgbiiCB3sWhfvaGo8UtBcrl05vMjPJ5/gpu4krq4n2M0fbW6CZ7hVkaqWs8zjO1svdkzPpC39Rvtvdx7LuauKbjSED3Jc4vOSJCqXRR1u2OEElv2oFv/8H8baLRNrMSVzNAYV+A7UXu9jxPL5ts0/vshBKfKSFHqVYaxnrg8GeSa7fDKiaopcz3iSRNx5UuAveMCq9dQyvVyTwhlsAX8QXWIk5fLw93nOW4g71QlmEbLTsKMjiEcztIbAaAcDsMY/ugR3JF85yZLuyxzivieHvHb81Fl+VtBfgtWBOA9fZWSu2t/duvYKtvFS6fm27QuscSVFOcztvQMc0PJA5DLb4nL0/j3yzC+AXCBQKHd8zAZY8sWIQaKi9eEjYB7XwpiRx3JazN2crno4r90DVJLCSWupDCBQBRf1Efi+PeLlYVJRpxEHWcYLXcXcfYZ6M/u8Ssw+5VT8Z4Wo8pQu4fOcIM8nF6Y8S88Xhc+KEguFweFQubl8mjvrQ4eYbMcNUDc+oROGkV2T/Aj5h84cmJF8gbDqPBvJiBQeF3NfHPRHoFsEIXdpQLwyLTNZXolUHBCAOdGXngcOTfWXJ5Ah4OXO7J38uqEnLiSG8mKmSian0WOlRhvzIJYYxfOP79sgxEKr6uvncnNHlnVieqAB5DnBcTs9KkhghUCOAqSywUkL5dfFdq8jUCEiqtiSk1oJ9trL3asCrlikWcoQLpNg4wQOr3NK8GGW+IK4Fx7pDp0kGuPYoHC6fwKjRcCuESZwk8ul3+RbbK95eqhPXElc82ONDcGy9zrIjGRXD7cfdhFX62Sa+bljRHKGxxrOaJwkyRMwpWb1AAspsFX82uvvjqKvQ3SvFz2dBcyduJKWsDgD6131zyx1Wc7xB8F4Sy2972zi6Z4BBgAAumbyzwHUySMedIYRPEAfMsLoTM6POo/0OqFdm8nEfTOQswgEC0QBIOS+FipOzgoFDlxJW9U+DYAI+wq/ZsJBADy2ZsCpDtQE3wAwyVuqXo0yZNZGAsgVGuOGOQi0NY0V6EhBHDpW4s/EhroyeUyU8O5LjQlE3riSmZqDYhBjK/u6MSezTktaZAz6l+3QCG3JBv28WSSnGuLUQE99MvGxVXtgEJDcrkY2NsIwuO8PTeDLO/f7q3WN7gtxcWzxcZ4gqlOU3N+TEDulR9mcYHcrfEiEIu59cizaeyxw8LxZLj7RHBHcskhuTt2k6KfsdK//cY0MWBv4+uDG8418vVUBrZQBkNOXEk7mZYcrdNoVkucVsHEOCi0v9GYRW34/EFXyNMqhlfGGa+OPaEVouNXdvu4pJT22u6v13yLw08ulx+mN5zrUdvDlShXuNZlirupKt35XDxgXh22QIFOno+hrMI5/L4EkC+drJh55W+jiU/yjLY/jgrIOVaq0JZxiY86HnOqcqYguVy+7nq6Dx+YuJKBOIKeuJK7gAetAUSU9FYqqzh53iC/Z5Fj5VZU9m/kGQA2HU+6iiUAi0n/XuuXqbM5cLc+GvGHTK5uI9FCq580nGup9vKM4IzIiSsZhMP5B+4iaBZkb+jkyuGwiicb5ELu+JVbdMcDcE+f9qyN4Ul79v4PiPFDwrbMzaKhDWwCggnDuYY/eudzPk1D4kpC8ru75PkN213MjMI5/GUbjABIQYy+SuUV5wMAe2awjibNqcsKR8R/+N6l8WisZ52C5HKZi+KJo6inwsVs6AyrPN3XoH06TGzssPq0M38zisFWC2VxQwHIbUpe+RkDqGJPqRuDJo03cY78oFNvpWo0lkmV7dDPkuPWQA1AI1fiSoLvRvmjEDF+SNSeuSlAqjr/6Pn7bptbiRZQEaRLpdZfnefITw5R6fnxKSrbRfIEULJ702lERKxYTSauJDRdT/ldQZzH9bfZxPjPBzCMLNS5hpvIx0FGgmwkV39jhkBigumMymi3TaOynRQXVN1BY6XucAzF3MrAKSzIlcNhEw8BDCASV7gVE/amZZ5jqYcmVcGDvAL1bygemAvO4Yeosh1y4kpedo5+OLY2BuEJMX/dlExMYrPI7hdALOfjVk4OWrzywPXSgbDZkbraTQe1mAGn9Sdu4krWR86Zq96LnbEzugUKG6Ink3gVzh4BKgHv8MuorXZeerAmi8hA2CynsMbiwVS2i2Czo0I6jxI2Aim0+Vd4znojr629Un91Monq4A5gQ7e41pHPPE0M/6UFREbb/FOB1X8IqwMhcuJKTiQNGb351q+YwaD28mARI91ncnx6ALT24xWpE7xC2H8kA2EsTn/LgkeAKtuh64pVHdxRldp4FUyjglw5HBbx2YaqQHgxgWv3xGuWbpNHn5a88WIInb7SQAp+crlQn03uugjEoNwd68oBNEx+EcpkBvH34arTnUHcSJBPALe7/VGo7eHiVyJ12dgrBluVF7SUQCXGQaVU9rU4s7xcJm/9id2KLF6iWtLXKnLr1HJv8MdglVw5HAZRH40Q6t17oxfEGY1ftde8xLxMJGmIRV8oJMZGIhJJ/D7PhIXEQXjspnYbqhJMZ+We8FoDLTNJq5l4sQSoBrZY5t3Yw5k4iTIUcha41RZMxoz06lO1gyTNt4k43DvuwCncXciaRMqR9tydopjuUrpS+KFQhmY5qOEfdCZWrA9gKHGu7KEmtPtCgaoo5KJVOvKZsyNrJ28IluPPRp7H9S9PapIpo/13Mi+XKVw6Gy0Q35HV5gAZvGlQw2H0Y+Yw2O6R8wJi7k2QqSWOpZ6Q19AGYXn55PeJ23j+E0nlJedQ5yl1rcF0SltyueiqnUSKHR7ZjpfRr+ftCO4Idt6+0OpYg6f4aH0MsE+jm0GgMrBzLU2JvWZ7JGON7q1UG4GQn/CtuTg1igpQXi5TdT5N+MJRilJ3PuXDGh6TaR+VKJ/guglS88yWAiQ4Pu1EMJ3xK/9HfFfHXuS5s7EAPf2pfIBAWm4jmZo9VYKeU+ERHF57cSwhf7BlGSyk5qRq7q5lDGPfb9qG1kFeq2yj5Zdh9NmAp1cBdPaEI8fCOSO5vNLcPadJrTysCR2RXH6UigVdBOJw/p5Fbp461Omlx2swjYK2VzOydMv+0Y8tPIDYhOJ+yrFQsNcc51Vcq8KR0d5LnkGkghYjIuHzctlNgRLBCfKp7eGa1zBZqrs6o/gCuHdfb6Z22WYKN8NZDOQ1MxJlaolrAyfCq+5LrxT0Zv2IQd4zmxTz9so5/OFnT5VbCWWwSv+Gmygw8+3ZO3l9Brfuw0jf1M7hxxLGBl+mZoHZgbJAIceCvaPfjr1Mo0wU8ZBrSCJCGEyaHh9fb07EeInE7CxEF08nwlm6rSGy3VeruWaLkLg+RqpKzzOEzerQAbJO8Z7i2PhxzZzndQYn4Phj0aFXiFdLtqfzM5/iZU+VMINArFA0JRKu+Psvyr3bDLXaAej6iCFsAaV9mhk4lHsCz5yX0NbrpJ0LR6rOdvLc7bRAYUM0ahItm/2vLf/A2QhEuHGUCC49Xo/h7i833KTYRTnTFCMGyNR7dnA9QTapMB9+YUzmUpqQZyrAe92WONKUTOSxgFwoca6aZMuyKy+XDfBtGFYEStvQ3YXsQf1RO/MZTUs8b6JMjQ0+ZjD+8+VZ3DMdhMXio5XTw2Hzw4F+HDsACZzCIHqkSLe81xCLj+8YwEKRIudF3dW5i+t0zYJ9h6fNpXfCKz+swPnnVx3c/RBI5X6SdUW9vLcekWIcr5xnsN3JLbk1TknbB1rHQFW2U0UQgRRY/Qw63kfTuhZhdeyiGO09rKD17nINbWYQdoocK88cFDwf4HvriRUFGBQZ7b/kgnVEEJ5IPKElVm/C5eWy8IWCpNW5PXujviHHB1/T7UU6EDkARtsgI1iKYHOg106EMdlAo3JuCNN5x7OhyKOM7YV8p3ql7jpq2IWKvFyG2IZYCGPxqrMd9Qy+c/gD0GIeQDkcNjDQ6vESqUOlhVOZO2g842zsLS4VhWIqca4LAE4DpWAfho68XCY3zCVnx/bVG0JGblCV+Hv/6O8/gjuygeH3nqqcodx4aETOC64NdM+oSxn00VJF+5kj8cYJJQt0fDr5A2Glb3ElTqKa09ePmqvgOV0T3SoYoTgotNwb9v28LGAtS7tAhdVVv+zKsHBO38KcVwdFuosZQIFCG5H0lCsT6tktZekMgfecVCWYxso8Yfij4zZBS1yZfWFQoHuycVIdUwYw2ntzd+0VHSxK5Gs8HwSyAESRLwCS488CBoyIavL479eSSgmyyRcKxEz1hs/YXsiGQ5sUrGy7nCBVzam0rmkM4Eau2YKF68d9/7DG51swvV7jCylKTX5HkaExrNAre+TzqQ7uLpXtZiIUKZovGqLnB7h5Oxc8zRR09cYj2Hwyh81ZwI1cs4OLwJEPYLi7OgnH7DL2Ljf6cRwjKFwgJ4zFmZGrhZsDzVZo9wfNy2XVbSOSj1EPM431XhqsVrUTSYHNu1IFgwmMfD45O3ZFhXPeVW+lalxjfD/vktbMQ/Ce78CKzpJcSV/uesrpW4s/Ek17qkv4wlDK+tyRz8u4eTBohSMKFNWZzAl7JrD3vWdqNFz8X3TLJKwMbBrfOFcke1eA0jGkr1YhEgOCKQ6TGh+8jYnkysvlA4UihbPHmvMDy1q9qZl0nrdng/AYfSMrsSLZeBM/0DQ28KdkxbwDKN0paXXmXCJb6v3Z23QLpcFlVxvhs5wtWa42/PFU+LcwJlsUk3+cA6dwntmiDnSZSxN5JUmB4ncVvuA6ys8Iugs5VigVHe7lspMI70YbX0kj71M8EEO28/cdRJqrMcYhFdt99ZZncUF44t4zNqwkSNWkEsFofNAYj3Eiia6gpTsIjw+/cP75aYzAOfyab9N5Afg1ZYV7iZFQJd37uO5EgwvFVETGlsZXQ5m+7Kl6J5zN/4OR7oOcp6GGjrzWCocp63N77p7XNEbwvNK/uVyOBkjSyrSlcY7dZXgfPpYvhvTX678vyHFQKHssiVwaeusezKP2hVZnI1EVfVw0TxkQgKxAzzFZUAXVRDCVHhgkRJ55DcQAnC4JByhITUUTEJR5No0fZeTrqQoe6N4EcivBdHbc1Rk4K/B05HOcRO1Afi6qb6pO923uRebzzQ3Bkaah+OPxHUUhtx2FJY6kxs9PXAB7c8lbqWQbjSsCNsxgqfJ0d1AobCs2E2DI1Jld/kUdL8wQaPdDkY7c/b1QyE+Nc0J9L8+/wXe6pphLXJla7y9X7S9WsHkhfVMDd5YiovmCg2nOsDe3IeAPL8KQMxCBOxLJipkLsSUcajeXKmjTJ4MCUkSpXHJUmMFuzflxa2rDVMBtcTAHs4b/ARuEtlkeZ4r4M/ooAtDoNvu5UXt5RM6Pj9HtUZ1iOBsz8DxMU+u/FcAvmxUOqwKbh38kVDMMSN4tg5b0BRHeNpGxvfzIeFZvn9hA38iLyQHgyg72dnqJO4AbFKM/zt21B6pVxzXXqAYaBv5iFDMdfn9OeQEIxBG2OyHO01upOSYTiMXYGzEsUDjFEFVmsFR/fUYLBHyjFz15dTrGx8wvrQAVMnX++YEksqH6rbRtO8DPR/MQOkVXVdwEGKYYjEw5wI5YtsIR/MsoTnFxRCYkvbmhyDme9FDMH2RREYDF7L55qT4SowUS26QA9+ToPdk/+mnM4MeO7J2+qTGsdDSC6aw9e2s8ZHs5hkIDBLqHoP7AqYqU9XmJzcy7svAP3VDN81NacrKC568yNEsgnmD0ZyCCcPgfuHjRK8zea0M5D8erxizzBBMQ6BAuzZVQesPTli2H6JbvWcBgoiWn6/whK3jYlEynA7BYdaPovFR1tvMx5/dKRrLBONBQFOkpVzuZCIh3VcyiZHCvqpcq/m3oWe0oFkKZvPzf7hoPs4zAOfwNtPrFOIm6Jdw49ieXHq8/alykZkPDYfk/KLLv90vf1BDoZjAoda0exvK8MZ4oGNcMp3LN7s89GiMY7b3t2Ttvz4Ux2RWk2Ju4LVBYYPW8TNSTjVkMBz8uCseWk6wIqCoKQLMwmNHnxxT5Sn4ojL4Rl4OA5jWNCTzpKeVy7xYvUfcVrFdR/SF31/IyRX2i3psNyI0SUGT484kRCC/Ir2WqSh+HgC1yENFHa1X91bGkaQxg+3h3sVT4tqSVyUYgjw20Zqnq62yT5WYGJDTvZ0iiV4XkrTEA6S5Znas629nZkrM6uFNg6nUwnU063Ev6jP9+g+3ekrqKDn28RAbhiRk4YJoHpL7O0i5bGi/55kBDwidKQZH+1zbV/cjkw6eWkW4qHv/5WlIpQa58oUBQEXItieNZGnhtLemr1B1SlDqUyf0Q0AcweFG/uag/5BjNSPfh5iW8KhuUCaNQxFNw4GZhvtumKCbyvzaM6P/nvsB+1EbiytR6d32jadIiU7MsT3tgff1SX6W2plPl6Z6zY+Ml6twtE2Awpo1IE9Kz5e7a0d7D0QQnizMsaZORHHkMO5EIGNl4Ja7AvjOsJ0ucK3p2c4nHkdyx5vxwyemVGumb+uHu2qWT/Y3W81Lac3dTIlafH8XONVu/JC2riLnRTiR+CHh2z/jgpcD/lMIKgwU2z9P8Tm0WaVh4BV8ce8DONhogZSUCcaQ5GSUIeFYwP8N+lGKn0CLH6krWMMnhMz6cilmUMUIZxRcR3PGqg0JPPd0wg8DsnvHB6xUqFeqeCn8kKnWF8cHL0Yvz89nAdI6QKNr5eAMNewTxlTS6hEF1GQ56lx5PMzTLZJabSw9F7Pn7P+X1GkK4SZ4PoyLqxVWNo0TUNzQ1DoYjq1naBWofM2ltHn7v7NrIjPTTwIhN/XNNkyCUKkEfTGefvODrsAPJMzT8+U6Joh35HITHMDP9Wa7Zsqo61PVyTwidpvgtOcNn+aeuOExzAl2Jmh/bc3mTqxf7vtjg1Efyx/lso4X6pmuFgefL0gQga9XRR+KJbiOQyVxP4AXqs+TVibcj2Cj3zZlp8qPWXSxQAxRCBGBwXfhgj3jq5Y58TlPNt9A3cuvtzsf7kabxAmGFw1yzu8TfvL1mJsqPzuHv9CJY3ug1JyJj2OxvtPx9byMQN/ZG7kxxAD43EHYSqTrdJzfJ3etU+VHrr9ewGSagflmDpxlbjBwb/nxcozUAP1AH5d5wTNO4gboQvSBOezTe4nc6n6DGuSSSVvzbXDkBBaWsG0Nk8Iz/vK5RlWCgB9RiMkiQ/ED8dabODDQbjzO+tIZPwCv4Islw94kTSaEwdnrhGleHFAS+ZNKJorSTtqGlgy4cVHpvl8MX359mHyEkQCLpf+iPRircRJN3e1GVpCuy+x38lpzRvLHu6hzrv1KocpC8Onml49GBRPnU+ZSdf34ahylY6DMU9sFz6lYB/tqGMFhLKm1LntGvpzp0uMzOwg+O71CnS8XcEamstRFIyfHqGmkCPObX0zyC6Q09KXbvI2DyKAkHmTRETom3I9n38/1ufQ69Jef3WQbTU64eiQg2f2lIY+2VBJlqz96H+XxJqco+BMD7cTyHQWAOUCeRQByuDOxSHmSCnp6X8t336BuZS1yeWtMXRa8bwMiEkQBu3UGlZZ7wrcbpMv7LfYoMgEaTpVSV1hW4yQ8BC61uTbIMvfVzwTSqYG/EBASRHF4TOlyZlSoVOvP3U9jmmmiJqfC1y+0SvKZetE/Bj8Pzzqd1l0rINBOQ4ju+vjg9UrITNYovsJWkE7qdQj8ebDZJmcIMMxK90NXgmOEgS+OnUEMfAzCaJfFc5QtDgH/N9IUYgWjP3R4J1odvz1zJitllzzEN451XSpR5twXal5SfSl3hgMC4cjp9amv7HIDkbDzZfT0L+nvsoNCqs0NqzcM8N3N3Lf64JLZAQfySakomqdXZzDEaQfeSHkQguTvWFQponrMyAPgc3ChUoml/rUZwR9DffXE3W78MNLu0WnJOmJ1FQ2h5JHeiaXzwJsqUl+YlEYDFGVvL5Bhj5DmhI9kHKeuN6a0GDMRi0LeruhjFF83JJB1BHk8aYtEVIWr05OLIP/D9jbYtxaE8Re+SOwCNUlW67eEa//n4P+wSfBIGKCueOP9/xc4VOOUZxLX8ffefS0RU21kKnIT+mzS1PirFRuddhXJPUPs899I3dev99YHG+2L9es1HAVz9JJ6upanmWWgRn9F80XgT10mgKOdG8J15/1GMUB6n7qg0umsYkT8XTRODnUiy9KY9e8/wHvyVwuCjpP26RNT+eo3iCQF+BDtTZ3peConYLWpybgQ99HkLodN0MvR5kqTA6mk8K65OhHwujMkKbL67VFY1OVB6RPosPCxfImrbw+0gE+g3rttVZZvIChsqcm4EP0SJP+fumL5K8WjSZD1xefLSd3/dD43jJfJPv3qhyYKSvzr2YQYfDVP2j77ai+OpgK9vQTieAbBzbiRDY54KHVtsfvLa3Ja5VyXs6E7K7imMK8ezDabl7hr9ejS5UFq39WkAsDKJqat3flLh60X6QkGcWNVdnXT2+TPY6sUO76BQnYLBSUZ1r5IQqX1O1RoTEAQRSNLqVB3c+1/bsiYfyvVsPg13i8d1OO7fmEBAR/h26QuDcRJVFz6pU4l0+2RlYI+cG2kYRGzS1ma+xBUWaFrz9/HSqewkdBfLE01OlPhG7OPkPLNE1WMpynkB5ZjRXIxAbN720FT/tPelFB+tEWxuhkB0SaQBGJylM7seTcqsJ63OdNyiGsICHuwkcqHMs3UV8pImM8rxjuQ5qHJLkRxhkHiJQvqlN4NBGIsXWH3Xc16n5KzZWksqZWqNg0RMgAFdbffLCfJpItTVUk+ovmAqFRS40c1Y9EehcPb4bc350Vupk4+XGTiD2Qg4VKzE1fXoBeFGam+oBOFw8rquvTwHW805/PBrcvYUc+nJFrso/JBIYL8PxdEIzlgdPNY0qZeGWLys4+7dGOLxiTAm/7nMHV7t7fRHmhwpQPuLGwOA9PkksnYX87sC7RunBQpDmTzbaJuSaajTncMf5o5yb7VWn+3Ja5ONgHe82Ae1VN1OIpOho5c6nhyTFXiP9Yqdu3YyjRGITJ2p9G/t2fvkvp9XkytlQYYxwN9eIpG1I5/DZ7lAdGeqFQbD2TzbZBticeC1obwLtte2Knxb8upkJ9M7XkFBigdkbOnPWCBD6HoEd4S9RVeFMLxeQ3l2NwiPw1g8QaqeVPhCSyr11epI732hyZiSCcSyURD2NEmmpCjqnrG/8IXCYDpLUczlntCevYc6fR70tqULDdGYt+cWA6ewCQi8FPjbyJg6xMoYQMvdBfGsqnAVVVkwAQYzcLjjCwV+SBSIRXYSCWOy6AWRtDJl6ZaPq0NHS/raHer08e/Xo8md0rvMOOBgJ9YJ7+HeiaNK4SyeqtKlrrX5NvVV68jXswxw3+dD7daZzzUXR+6ujRNJO4lYoFCd8ngKhlhZpX9jhJ0R2wCDB0f1R8IsnbmXZ3HXrhXafPHRWuIK5b7tdt11bEqmtszdVSh99Xby4fjv59HkUbFXMox0RrIxul6K5I4C/eyPd9YKg3YyieaLtA1ddLjWhs9XN/e+9aV555/fTAyzGh98w91noNm2muKx3LflmGyCbApl8vt3BOnzQro0YTJdq9jA9Xvk171RPAGkvo1MubexYOkl8bW7WKIXhE5DzWjXV9M7fkhkI5FwFo8VyZT1OdtgCq3+H6rO9rqrs/EmttymllRqe7jaM9eny82JWB+JNedHhTcUO3yu2aVv6gSZipofg2ksAIt9ocAEGITXcFMj588PDlNVuuMxP2Jo1PtFttE4hz/ZxhKXscCN4iW+9lVK/JI6IBn4aDi/6/UKdcEMHP7t+5fnrAh0fuPyTytmEFhUpvzPUOWuMsMMBjGLsiF6jn2/DGkBn6VbBIC6PXWXh2y7hI5ko6EcYCTC/ipFqR+r1DVp0nXVtZ5K+QSzIQw2kaZsTGkrG0KnAqBD295KlW0MKTce+FrhKM8WkByjcQ1ZYMkU9JacObv2m22NJVT6t9e6Qp4++7tyjfAtsRExGGiTGLtU4lz90UgyE3bfmF+9Yoycv4dxEuUFMCCt9HiVbfOjtTUm3GeTKDtfe3k4yIR9kzADh1O14ZM5ytU2p67zKkQqz8k2nt9tTPBz+0mUXX07iicUnW1LioPGfhhqd/a0fYdITgPvhyOfj1wjdwAbFYGrkkjbX69pqnmFYSvVqcOnlTl0PWcQ84kLbV62zT+60LjgGZkSaUe+3uKj9Zpg1kb+ydXJYU7LHJzDL89sFQj3H7+Sa8S8PBsZYduTWDvfdBMjOFxRaX0U/nDk/YxNkTeHaLFtfHhGrvG0MmODATJcom1ftbpMiGXPo/SdQpv/FavUtv69Qo5p4l986GXbM6/ARsfgKhJvj1cEdgeVqmzZmC78kWhyeC+zid5yhUgGTBE4hTvzt1zjq9saH24A6pjPYbbO55y0OsPXe6E9uYU+YJYkIefwy9/3rgD8AlR0Geu/Mg0daHAbH9w5QGLuWrl3u6KrrFgyAYZbFf6dYco/dhcyiKIZZjCoCmxybV5Qn42QjPMhP93ouorlbSscCjYQRCB5Ftdfq9sas/gxS29APgsv9zeaXOOdM4wRRn9GTC59HMEdTcBBMAATEBQdeqbJ+2u9v0AS9lPNNpjDMg2A68ZGSY3JEnsHmr3A5m1EoqvSvx6zIFg2jA3XEldmkMuJ1vtbrs175BknfLggia0zyduT9E19QvKJsKI//pvD7KI6uM9BfNIaCVI12n9lGkEt2EgJmy7xd3zwNidigmzyhUGpLwgbgXRkb3bV352UHgcghaEmtMu1+fbKjBXeWb4kgKNfT93VGbsoXfl5Le0pUa7OsOoxOTvWBBhgxk3YSZlGflU2Whp2kSRwuPvUXJyxi0LaC7oFDEpPgodRprT6YzDIkcudEucq1+ZrKzZeGKgCRiUR3tReHHFiaYVBoVI4Y/xQ0RlstWi+ALmIYBrtq1aZhnNNmhFzo6+WVHDk622IxeTVyaMK6U7xEsmiWHOu5u7aRQWk5Fmcc/STa3JV+rER435/uySDY4Ov7eHOMhgHhewYqlSfMN/iGNSJVX0kThl3XgAyDbuLRaZdrL/sNmZ46Y9LQnikt1JLXSGaL+4KaR59F/5IVHd1sqdpJ5Bv2PQck1mWaYyfwEYNAO6nS0q4f/Qb7j5NiZSpWVbueIUUp5BptsUYRj6fFMWsw7xaQQTS+ZTlWquRM9mMG67fSRLDI331VnW2J61ONgKe7DZPcg23L59ky4tf5Fih3BCbY7JHZBqdAFc2ciwrk/RwfPB2l0q5NyQuTzYiMYOAQc13eqgjfvpOlm4Z670sof76dCWnrZy9XW7NZexwhXkQTBGf9LyUi2mq+V/9rY7/tKrwKn4I+PkC0P+iLxSUHK/z7KAzf0ONrpbf51ucXGs1EjGAjZ6MXpIorg60elMiFRy4OLG0EYmrs1uszehuw6tsOCg0QaqK7P7TpmSCymRR4Y/GNReHhxmuI4gRCBXq2INcOycul2QYP7yiXIm+JG6y6CnXrXyLjV9SwVRqRaAdwyuEDq1phRk4/Af/KnFlKrT5xnjsq7exwbepLefvO9PEAJZxe83JxIq+j1KUegHKmealrnVTppHUik2AwCaSNHrGvt9PW+6uct+WpV1ihTKYRv3RyAIGitfrJbQTXFeF8HrF1+cCsDiUwY7nmMzv/rPBVhsffAfIWOivt98YYBY5saEe21KO0QAFm0ExTg21m1ybNwk0BbhVkiSPh8d6z8Bra8/l2quz2OEzNEu8RIazuZ1E/NFo7tmC6p1aDDFZjAP+J3QTYDCDgRUGAzDYQaURcyJRrr4rdYeGyNn5lAfb/clBdt8rAzuYLr8igjOywBEx4z/fg5+A1qm+MFR7cWgybm4iL0Ry+b3rfdXakbsb46k6dJS4Qp7FZWqXFOWcIFUxizJyXoSz+W9C6CyETifLRtgsj2DzKN4YK5KJ8ilVpbP0puDAlZ2E2ouj+Ta97m+04e4zPnidw29GZ5kTpEqAfVuI4gvp+xx9tcwTrroVGNzJq9No75Vzc1N5oZXbzuH349jgW1o7NtR5Bpp9sgw022Cr7e30S6Nfz9LzVefwt3/0I9MSFDBpz2MXhdQ7kD5SebqDZSK5CMLj9swl5+Ym80Jd5/PMdlEBK7FC0Vsu0r5Une5vCQWInfwD/0jOzTF6QXqCAUZyuYCbonljdyEz8SIi58aBZjvUmTNHb4y8aPXXpx8SwZ1dVyO4o3Q7kf6m4t8Gd1H9EKj+6tRkm+DhQNOBB0SQl/Gf77sFRYFzKH1LKnmkyfj3e+484E5MpmYZH7xyjYjXZhMiA2ih70t/vX4lACc7idRdHpJsk7GWv+8Aw2Ahwli8t1o1ucbUDMODa0dPJ/qmhujpj0Iq4PRWqTvsStAQ1QzNcgXuol6VbafEZcDp2KSw7E0nL6t5ZmsCAlD3IGcbzK8l50TDBPlkAgyqAsZClm75QK6hz7aYFhw3nr4veqxYgXq3eydBqrqLWVK8aElfX03qlwb3jLKtYy4ZG8ImhuOX7fRN7dnbTqYCtP1JKIPVR+OqhAxlrfDvNgIRoIb6NcWjJtewAtBhanC/r6YvnsrABpvPuRPpP1dg9ZJx8NPpbL3ZAP2QM4NBkWM9It+UMAN4bHJoazK2NsbliYSHbIPZAU6ylQSp6njMHkncrfX+ihEI13NAkrQ2v9bkGr6300wPTu9CX7ShdouTKFg/nOvCTqbl3rBGPyPdp8QVXKFmAN1redlTLppsY2212RStCgwSOHU95xAGE9DaaCStTNcpl0vkHP06Hu/E5Qk4XJAiEIsb40mTbeQfi02SSdMJjNYQi/eAJ118WOxYhzqdaiXfS5zrh8C5paX6QkHpSXgk39hed9OEHxdDYA6XebfJrCAAfspogWyInLvU1pN9HiNU0N6R0BezdGZJk20EvTebKAA2mcIv7+WaLXzOYQs/BExV6Y7cPXNRptjBnf87AS5+9c3QW9fkG80A3FThbokUTsPdJ1WtZ8EnVQ3C4RyT6Slm6rbh6a/X/w3BX7p7xofve16KJt9InMcmS+ASCqMNNlu8RKoYCv87yCR/z/W8VKoWPL8qPV5DGQzBTWbCQaFT4kch40QwmK6nG0Xi1FsuUfOjQDGM/nXenut+zqvUnAn/s3MvMazLFYFTuD4S949+Mo5Ob84mDAAAaCdx6szf5wWOcR42AsnULq3311j/oULiQnexFBy4EAZ7jPJh5odElYF9WZNvWBfbTBmuNovEaLddI4MYZUH1R6NEmaoJ7YOt/gK5w9CRz6c5mdK3FxuR4Hh5c8/E4AuDJcfhR03GMbAfm7YA6U9iNltu02skFwKohgUCwlg8z2xvb23jdSrYUypl7hCzKP0Q0C1wfuD3C6z+uSbjyF+BTZzuz0zjl+3GeLSTiEBTXVjxR6EYoSx2rh+veTDW9FZr1dmesjbZiMQEBFidjqkrh8f6rybnmL4+U4c/PJ7GydN4ExcNRPsWTYDhWsyiLLD55tQ12O6roEfjtjqfS4VvS16bJ6zLxXOnuXonx2hG+68m5wj9AzZ50u4kiZzuvhYKXnHvGfsrVgQKY7I0tS73bu2Za+itj/98ELv/j7Z6SqXu8sg1mWiBCJzCJhAwEPv7Vc0QmK03W5qsY3eRhsD4O8LuROS0vTw1/viIDzdMQPD0VvLqVGjzdVfn2V8en9+caQ218cE7/N57yrU5mco8W4ZmieKLIAJZceOq0aGu5Jrd6NejyToKBrACAABA4CRy2rzt2ihycRteZSUAg0OmWaxIpm/qAquv8O8N0Xi7q5D7avXVseHuszbae288PDP88ex96wONtvugKZlqQnuxc80ymMTlKYLNbQRshcEJFyqgd8jvnsu3WHl3q7Svy6YE8OB7SSp7NnJe6FTY+2B4vfpRyyT0Q8BAHLaTaQidhbN4JJdH88fYRXE2RiAi58bDoQzmoFIbHj/dMIOBIrxeKkaBwtWiQz/2/WryjqHVWBlcXRGZU0+5xovlgk6NGaqqEIYxbee91BgaIgLQqNwT1jV5R9HNWCEob0ZmtN+mKmczCKiMM3HRRiQ158e8JvNolqMUcM9cOqfh7pO7azcEy3C/aU5EjybzSHoUKwauM1npnMa+vzJPCMQiwS7Tcn0AQ8yCcOlSJ/Ow1nIpB9yvJp3RnP+/hlgMYTCVVWvvpK7P/Y2myT4GbouVxBMVETrtH/2+jRMrE2BQmfQcfkhUcODOaLIPoH9nrCiUT/YQAvf2k20wVhgUDLo4yKQmuE9uUgY+RllsBfSSOo0Nvk+PsmZSTRNDzKJ0+Y9V/hHxJFYYbAB0kjp5lFixMgEBUxbEm2yD+aUmA4t9XRalgWs3lbR2qNPz9pw/ChkMMUU1mEarg/sHmhxk0RxWHh8XSuy07+c9HsEZZ92MWHsnaWX6bFuTg5S8NysQaU10SWz7Gy1Lb84bTFhrI5JS17qlycPy6ZFKBIdkURttfPDVR+PFRSH5tWYITJSpB87hp8lDEhayIqGt4C/J7W/zLS5wCkvbGj5VdVBpmWc7o8nE4v/TmjLBR/pheqPNt97fCfKJJPjjkvCPuyvcxXKRc4WxUtk3QBLcrarT7aVUHySeRfNF/fX5niYbS0ErViwAsCPkY1aQbuYKFVj9RBdaElwQs8F0Njm2WWQjvsttygWPe2bagTnEkjO1JhCLhFtiS2oQnuTsWNfAwZSRHG8cK5kj21AO5DEImKrWT/eMD0JCS+J++vbS8XivanKy/ElHVjRcZ3NKovtBy21KUUyuBckspap16921rsnKYn/+DGWDAaOfl2R3tzWd0tT6ohQ2J/SLaRv63geazCw/34GVTiA2UdLd9fbs/cZOoS536NJ91sw0MdhJhNA/7nLN6xAzWPHIuJ9dEt75npdS5Fgj2NwChfQ+tWpYwOBloc1P+sddbmKfHV0R5VtFej0nay7OExdnaby7bigBaJQgVdVn+2CrOYc/TYaWpoO5goq5ivD/0Hc85v8tgjtaYdAt6FohxE9hTJ5rdm2ZW9L9eqD2eMJ9OCsiGWeyS+rr2dvpjbGYqTMbPwlaVuhCmMHAQaFpal0XPgdb3dVERJZi31t0RZRxlQpwfqDZ6q5jhmYJnWETWTtsqBS409wCAQ4qTVmfb/dV6wVNthaA7cBKad0/karA+cFma7yJubs2iicCMNgEBALvJl0Ys7fCZ/n/Unt59NXbuiZjS/bJWDFxARAYlSpBz3D36Xy8K7whTT2Hsbg/Eh0VXqHDd6k7a4XBYCpNXJ6Kj9Z7Q53+SJO1xbnYpZzwuF1JFeHq0Ftvz1wVvi1je4niiSACmVvYMzYAhYFZF4ZX/+j++WTFXHy0NidTf6NN8Xe9vGU6oMdKas9Ub0D02iVnesq1MR5LXCF9e4kRymA6C0AjCxSaAIN7Sv+Zqq4f1LZctzC8XqGYweCWnUgiuePnBVb/cedTHur0Kd/cZS8Rj2JFxXG7fKk+PDzaewaa7XVDLJZ7Q57Zpqp1nFiGc8ZgGg3C4//gzTkzCCweYDrX7KIZOFjAYM4PAQOw2E6moUwevSCSVqcsvSl2rrXnR9vD1Vetwx/PqiaXS0o7m7LCR5osVYvLY/332MBr63kpHfnckkoNkfPXlad7hS+UHq8lx+tkKTsJlf+26uBRd302JdPb3YX8Yuitr43/ftuavC7NwlhpBVwTpNnD5qdjxUW7WYy5g6CdacoLR57Pat5Af+dIVmJvtMi8QZd+rMyerI05gz8BYlmhsSxPMV8QfjmLUsOTepgvaDaJldvOrc0VZNVnBUfrGm+eIB7I1ZQcDtyb0xyBc3YgK7sNAcYcwZBiVnpfe7z5gdgVseKj3azE3EDmztzKDxcOMjNs41xZGmNg8a3MURuxwKqH5uYEfvy1GQm0BhPNCGfE52pYwNGLgVFzAb77C2Q87D7ZXECP9TEmxs0yDzAwhHGxeq45gKQZjAy2hwH94p+ofVmwgfM2Zhf92M9n4Hlrw8peNncl+nnmDoyRb95a8De/8NyMk0Bytsgnu4WGFJY1RQn8HD7exVhZQ9xnYF+Sx3hZ/NainjrpjJmjZwn6cmudGTfrpop4Ir6dkcNxrRLxTsm1HNjB0evKF+2kLA5k/DxSPatYx3qnIzGGzhki1tnVYMbR0TVFOrPqM5bOGyXO6TSP0cTdIFGUs6m5bjxh15qCxDhFH+9iTI2sFS7Eg1CYXYNxtWx3Anx/1lVNYmydI8CrkdSZw/g6YZHoZkwcY+zVlgnuNpL6MspoJysQ2RS8sYYz7G6QLa5JnOtgrHX9tLCu8Fny+S7G28LLCerWDqNaFjLm5g0S0mVewv9RMuPukYBWAd2EqR2gwxh7x/URzgXZrL9+IMbfwSN0wRzje522TAEB/tPEMr0PxTRw9BihHLZ/Z6aCMweKY15/ANPBKcuEceHynkwJRwriCGdjO2qkQKseIIIJ+HCNaaH7cKniF78WbqaGjq5JwjdCqwY2poe2uW0Eb1AZwyosFElVE4VuRe1jWZgmuo6VKHIXFzNdktBdKJME7kKbJGwX6iRBu9AnCdmFQknALhRKVdsI1SIu13IxjbTNFajFU5OGWZhK2samCtPqIg1sTCcdhxOkVT4DWjiYUrrfOFaINr0ww8G0Upu3TIA2kNRRY3I5ZZbwDDK4J1PMmYKzaeIxA5hmLnyawOwZRJ82mqnmlz9IWPbhZX3rL2e6OQcQCsprq3dubjBTznFNhGS/2OELDsS080izBWQEC1GDwph61lguHGNNKXn/PKafgRv6E8FYAeynA5mCWroKxULnAQ0sTEPd395aHLLsZA6motqKmgrCUi/6oqtpTEiXjhCCYSHZ33oC09Lap0oRgBeotbvaTE3D9hYk/C7AoVYZ09PIfQm+dkwT1xTJFNU1dr7IY1SDDKap7m57EnfUbORmsrqwjqDbo/VWo5mydnj7fBFHfr3aTFtzLhYq3gi9WA5T18CdFYg2UqsGMn11jKwp1Aqo6rM6OpjExj3IKdCKoY4IYSrb8P8MF2ZNqfRqyHS2BlAlyLrR/ZN91WBKa3n5owmxStqXsjCt1erfSnhl4dzV6TQmt8VTi8QWw3ulM8Wt8S/9RBa5wTWY5tq+fU/C6gy5XvNkNia7S39dULW6kjJ5AlPeSQCcKKKYuHgS097o784STyR0jWbqq735WwumQRD2fevn1lgFeKBaQqnaZ2itA7E6sHCYQBpY8ObDClkt6J45QhBt5VtnpptVhOOeXwjtNv5MB2J1YTSQeTThU+5Fb/3dgaw21BZuLl/0lG8ZrbEKMezrhU4Yw0n9y1idaOn47sKm2XFr044WVi0OnpopZoiZ2pbVjGnDlgmYnelZq0tjdaM2uo+/cOndY3Od3ax6zHmYYAklp2BfR2I1pKNVHYESdGH4kCc5WCW5vpbC5Gxa0i8DOqyetMybJkQKnvtOG2lhVWXx2QRI1IWJZytmtaWro+hY6fyPb1xZFBlm5JXZ9+vA6swMgbHSd1rdDFZtFl8sV1AcZv+3xazmdAHEkBQBUZtzSDcXqzzX126UcBi2a4D6flZ/2gb8ulDo+X745BXZWBVafq2jWYVB/ezWW8phtah76ZJ4QdB44ZKlblaRpv3BzwuA02m+P3+pNFaZFr9/gMpvpUEvaFnM6lPba19J1UceHtRnRTZWpSYPu5dTtYdXNnQYgLNaVRu8OEKl3zyh/VXTWMVq6dsnRoV/anOtXKxyTe66SGUfefcd0yCZ1a9ah+XzVfSRd33+5WprrIq11W9SqpYpXXA3G6tmC09WJ0oVRx5b52SFrKoN29lQ1Xs+zTm0ahirbbU5l4tVtfvQgfbLDdZYhWtbuLU2KjY66KmjbazSzZgCIJV68fUlV3ph5QitTJ7rP/vyt1KhB+mihvxBDVb5hq2uaYrK7Hmr6erCWP2rHejzB6rIQ+/Ogf+yocZCQK1t/wS7Sqz2lbC8mpuFgY5DLW6sAptKs84/24s7WChoWzg7QOW9sQYMWmhj4aDrbteLUHGFX3S/rd3NxULCjAG9/HS19q7XgAyuoMB4o+LeCY03aisbPaLiO+Fh9HOvTE0dpbMGXG9mNAsRXfXP1FglnSe3N97b3VwsTLTE/dssFVSmzZm1rhALCxUdAO/Za6qc8ucps77+t20sXHTP2dB/VDF1xaL+40/PcbOQUfv+BnVUSr3uzDpzv19jcWN59Y/+E9VxSk3/k1efkcOCx7S+QIu6OPhun//BrdJYAOmasKOh+aohHug97WiCiwWR7vSb3SpUFTRvNuRE6W4WSZbX/fQC4pdqs6a+fd1yFk5Gd265J8JnnV+zZf1oFlK6i+cebFMkP/qub+qvtK+Qt7gyb8o/ygondwOkCSvrmceCS9uNAHLIREJvrscP+a/9bCzCLP/sD04Ip/L2H/zZ5SzMtPQ71ohE8m6uJ444Vj8LizWTWz1/zeGkrRwy6/mflMwCTkf6e39zAFFrdzsDvvlvpztY1BkYErwrep5V0ze1q4eFBLLQUyt/0uIuMaQMuGpt+5tSrrH40zGu+tTWRLw4Tf/WvWYcyMGiUEvbsaeKJV8TSymxu+va1sVi0egvP1GfUYQ7Wx4+qs/OvjyaRaSFE65FtBXhBT22NKGQK1FcriDWl/+UUX22tDBSY8Fp2tITffSPk+lQnf+Pf/SJJqSxGDVwW2PfuUoQec6X60FVmozdViCLVF0dZtRqWkqYRhHtpU1nz6jtYvGqo/uTnn1EQThNjsWNePYp3R0satXy4m726QMzSfHtX88c+Ok3C8nTWPDqKh7Z8lYFRDgGn1IwpOXIdBeLYbXkuGG9umD/X729dG1LhsUlayyUta2vb/CrHy0T6XaMrZlHe/XgvuuzsJA2ukOjZ++RgO3JNT0oodnXz+sQzULbtLZ1d9QsC8vDdXpmQrMd1W2bxkLctMHzbgeg18fu/3r7xCpX+vh5g73xO0H9/b+4738937tHINWjSH7Eu7/zF7cqjmYhry0s5HHrOlfriag0puac2Ppc67rQwjIbC321wtqtrvXBzzy+xI7At/yS2Gf+4GO1qp2msXlAd/KNum2o1/Tx8Yr9TcEZOn56rw1165fsZnODjuQb9aw6+2BV/sRfUQ/G6/5/UuVgg6r2vFGyg80XutOK37zF13/608aXKuBRu/zS8U97+69v8ebFaW42i2gpr3a1sZert72E7OGKVODNOjw7YXv1Ljf2atXKLWxuUbO88pznfvnglU0eM780SiGys0aVzh/TY2XBfzBzzitbNDbn6AictK2+hwseBKBpy3JL8k30X3w9vyR32bQrDXpYi77bmhTo6T/s5p3soss7dG7UdU2DvnlXNednx+SbxBcGa35M9qiau/roQWvq2qhzh5xoB5utdGQkf/+2ZnZs8Mn7a9JjezUb58YX5RvZGXV7flF8buOa2+vRZH+f3KDjzG19f3KGg81napbC8nHVRj/pjbtuaHmtJn1G9B66bJRfdmjMcP8Up1XXDfRdXrc6U/yHx4Rm+41aNrT3W/dZUGv5hrq+8ZTR1caVF1o0NvPpyCjMK2vYdsLMR73x49qv0O5itabeqc+5dtV7zKzXbx4bW9DGEwtiY5u//qwxvZ/5YH3uNLXWxdqt0P5xb/yomRPaNizLK1SLXwUY;aspect=fixed;" vertex="1" parent="1">
          <mxGeometry x="291" y="850" width="50" height="50" as="geometry" />
        </mxCell>
      </root>
    </mxGraphModel>
  </diagram>
</mxfile>
